<?xml version="1.0" standalone="no"?>
<!DOCTYPE svg PUBLIC "-//W3C//DTD SVG 20010904//EN"
 "http://www.w3.org/TR/2001/REC-SVG-20010904/DTD/svg10.dtd">
<svg version="1.0" xmlns="http://www.w3.org/2000/svg"
 width="964.000000pt" height="964.000000pt" viewBox="0 0 964.000000 964.000000"
 preserveAspectRatio="xMidYMid meet">
<metadata>
Created by potrace 1.14, written by Peter Selinger 2001-2017
</metadata>
<g transform="translate(0.000000,964.000000) scale(0.100000,-0.100000)"
fill="#000000" stroke="none">
<path d="M4575 9132 c-70 -3 -287 -30 -370 -46 -38 -8 -126 -23 -195 -35 -181
-32 -386 -84 -405 -102 -5 -5 -19 -9 -31 -9 -13 0 -25 -4 -28 -9 -3 -5 -23
-12 -43 -16 -21 -4 -51 -13 -68 -20 -16 -7 -48 -19 -70 -25 -22 -7 -57 -21
-78 -31 -22 -11 -45 -19 -52 -19 -7 0 -39 -13 -70 -30 -31 -16 -63 -30 -70
-30 -7 0 -24 -9 -38 -20 -14 -11 -32 -20 -40 -20 -19 0 -72 -27 -87 -45 -7 -8
-20 -15 -30 -15 -9 0 -28 -8 -41 -18 -13 -10 -49 -30 -80 -45 -32 -15 -62 -34
-69 -42 -7 -8 -18 -15 -25 -15 -6 0 -20 -8 -29 -19 -9 -10 -30 -21 -45 -24
-16 -3 -36 -13 -44 -22 -9 -8 -20 -15 -25 -15 -5 0 -17 -9 -27 -20 -10 -11
-24 -20 -31 -20 -7 0 -32 -18 -54 -40 -22 -22 -44 -40 -49 -40 -4 0 -16 -9
-26 -20 -10 -11 -23 -20 -30 -20 -7 0 -26 -13 -43 -30 -18 -16 -35 -30 -39
-30 -5 0 -21 -12 -38 -28 -16 -15 -47 -40 -68 -56 -21 -15 -54 -43 -72 -62
-19 -19 -39 -34 -44 -34 -13 0 -361 -347 -361 -360 0 -5 -27 -37 -60 -72 -33
-34 -60 -66 -60 -70 0 -5 -13 -23 -30 -41 -16 -18 -30 -35 -30 -39 0 -5 -18
-27 -40 -50 -22 -24 -40 -48 -40 -54 0 -6 -9 -19 -20 -29 -11 -10 -20 -23 -20
-30 0 -7 -9 -20 -20 -30 -11 -10 -20 -22 -20 -27 0 -5 -12 -21 -26 -36 -14
-15 -34 -46 -45 -69 -10 -23 -23 -45 -29 -48 -6 -3 -19 -26 -30 -50 -11 -24
-24 -47 -30 -50 -6 -3 -19 -26 -30 -50 -11 -24 -24 -46 -29 -49 -12 -8 -129
-245 -134 -271 -6 -29 -15 -53 -48 -119 -16 -32 -29 -65 -29 -72 0 -7 -9 -29
-20 -49 -11 -20 -20 -44 -20 -55 0 -10 -5 -22 -10 -25 -6 -3 -10 -17 -10 -30
0 -13 -4 -27 -10 -30 -5 -3 -10 -15 -10 -26 0 -10 -4 -19 -10 -19 -14 0 -12
-27 3 -34 9 -5 9 -7 0 -12 -7 -3 -13 -12 -13 -20 0 -8 -4 -14 -10 -14 -5 0
-10 -9 -10 -20 0 -20 7 -20 465 -20 469 0 471 0 466 33 0 4 4 7 10 7 7 0 9 9
5 24 -6 24 18 56 31 42 4 -4 3 -10 -2 -14 -6 -4 -16 -29 -23 -55 -7 -27 -19
-56 -27 -64 -8 -8 -15 -21 -15 -29 0 -8 -4 -14 -10 -14 -5 0 -10 -5 -10 -12 0
-17 -33 -88 -41 -88 -4 0 -13 -26 -19 -57 -7 -32 -16 -67 -21 -78 -4 -11 -13
-67 -19 -125 -6 -58 -15 -106 -20 -108 -6 -2 -10 -43 -10 -92 l0 -88 30 -14
c26 -11 30 -18 30 -50 0 -31 4 -38 20 -38 11 0 25 9 32 20 26 40 38 23 39 -52
0 -40 2 -84 4 -98 2 -14 4 -118 5 -232 1 -151 4 -208 13 -212 9 -3 9 -5 0 -5
-9 -1 -13 -21 -13 -65 0 -42 4 -66 13 -69 9 -4 9 -8 -2 -15 -9 -6 -10 -11 -2
-13 17 -6 16 -380 -1 -390 -23 -15 -29 -10 -22 18 l6 28 -17 -23 c-9 -12 -13
-27 -10 -32 3 -6 1 -10 -4 -10 -6 0 -11 5 -11 12 0 9 -3 9 -12 0 -22 -22 -28
-13 -28 39 0 56 -20 65 -31 13 -6 -28 -7 -28 -9 -4 -2 24 -3 24 -10 -5 -4 -16
-8 -24 -9 -17 -2 18 -19 15 -24 -5 -3 -12 -5 -8 -6 9 -1 21 -5 25 -20 21 -11
-3 -22 -12 -24 -22 -3 -9 -5 3 -6 27 0 23 -5 42 -11 42 -5 0 -10 -6 -11 -12 0
-7 -4 -4 -9 7 -8 18 -9 17 -9 -7 -1 -30 -13 -34 -55 -18 -21 8 -26 16 -26 46
0 29 -3 35 -16 30 -9 -3 -18 -6 -20 -6 -2 0 -4 -7 -4 -16 0 -8 -5 -12 -10 -9
-6 4 -17 1 -25 -5 -12 -10 -15 -9 -15 4 0 31 -28 16 -34 -19 -8 -39 -13 -42
-30 -20 -6 8 -31 17 -56 19 -33 3 -46 9 -54 25 -12 28 -21 27 -48 -10 -23 -30
-23 -31 -29 -7 -6 18 -7 15 -8 -14 -1 -29 -4 -36 -16 -32 -8 4 -15 13 -15 22
0 13 -3 12 -20 -3 -11 -10 -20 -13 -20 -7 0 7 -7 12 -15 12 -8 0 -15 -4 -15
-9 0 -5 -18 -8 -40 -7 -22 2 -40 -1 -40 -5 0 -5 -4 -9 -10 -9 -5 0 -10 7 -10
15 0 18 -12 19 -28 3 -9 -9 -12 -7 -12 10 0 22 -14 30 -25 12 -3 -5 -13 -6
-21 -3 -9 3 -20 0 -25 -8 -6 -10 -9 -10 -9 -1 0 6 -7 12 -15 12 -12 0 -14 -8
-9 -42 11 -74 72 -359 99 -463 64 -248 249 -730 310 -810 14 -19 25 -41 25
-49 0 -20 36 -90 75 -146 17 -25 49 -74 70 -110 56 -94 217 -334 276 -410 211
-272 515 -575 796 -793 101 -78 347 -247 359 -247 3 0 25 -13 49 -30 24 -16
46 -30 50 -30 3 0 24 -12 48 -27 40 -25 291 -153 301 -153 2 0 38 -16 80 -36
68 -31 156 -66 266 -105 19 -7 55 -20 80 -30 86 -34 446 -127 540 -140 62 -9
89 -13 240 -38 181 -31 608 -44 865 -28 134 8 210 18 366 47 59 11 116 20 128
20 25 0 245 51 351 81 100 29 382 127 445 154 28 13 88 39 135 60 84 38 258
125 335 168 83 47 141 82 180 107 22 15 60 40 85 56 304 194 725 577 962 876
144 181 314 427 389 563 205 374 333 690 432 1065 33 123 107 481 107 516 0
22 -16 16 -28 -11 -8 -17 -16 -23 -28 -18 -13 5 -16 2 -11 -10 10 -26 -10 -30
-27 -5 -9 12 -16 16 -16 9 0 -9 -8 -11 -24 -7 -14 3 -27 2 -31 -3 -3 -5 -23
-8 -45 -7 -24 2 -40 -1 -40 -8 0 -6 -7 -3 -14 7 -11 14 -16 15 -22 6 -5 -9
-10 -6 -16 10 -6 17 -12 20 -24 13 -9 -5 -25 -7 -35 -5 -12 3 -19 0 -19 -8 -1
-9 -4 -8 -11 4 -8 14 -14 15 -24 7 -10 -8 -15 -8 -20 1 -4 6 -4 14 1 18 20 14
47 89 50 137 3 62 -33 143 -86 192 -92 83 -275 84 -368 3 -68 -61 -112 -191
-83 -249 51 -102 52 -105 37 -120 -13 -13 -16 -12 -22 12 l-7 28 -15 -31 c-17
-36 -28 -39 -35 -10 -3 12 -10 18 -16 14 -6 -3 -11 -1 -11 4 0 6 -4 11 -10 11
-5 0 -10 -13 -10 -28 0 -42 -37 -41 -49 1 -8 30 -9 30 -11 7 -1 -14 -2 -36 -2
-50 1 -16 -1 -19 -4 -7 -3 9 -8 17 -11 17 -3 0 -12 -8 -20 -17 -8 -10 -12 -12
-8 -5 7 14 -11 17 -20 2 -4 -6 -11 -7 -17 -4 -6 4 -5 10 3 15 12 8 11 11 -1
19 -22 15 -30 12 -30 -10 0 -25 -9 -25 -26 -2 -12 15 -15 15 -24 2 -7 -12 -10
-8 -10 17 0 37 -13 49 -30 28 -18 -21 -30 -18 -27 6 1 12 -4 24 -11 26 -10 4
-12 -3 -7 -29 5 -25 2 -38 -10 -48 -9 -7 -15 -9 -14 -4 2 15 -13 54 -21 54 -4
0 -10 -10 -13 -22 -6 -20 -7 -20 -32 -4 -29 19 -54 9 -56 -23 -1 -9 -4 -5 -8
8 -7 27 -31 41 -31 19 0 -20 -34 -16 -56 6 -13 14 -19 15 -22 6 -3 -7 3 -19
13 -27 10 -7 16 -16 12 -19 -4 -4 -13 -2 -20 4 -8 7 -17 9 -20 5 -4 -3 -7 1
-7 10 0 10 -4 17 -10 17 -5 0 -10 -4 -10 -8 0 -4 -9 -8 -20 -8 -13 0 -20 7
-20 19 0 14 -5 18 -20 14 -13 -3 -20 0 -20 9 0 8 -4 14 -10 14 -5 0 -10 -5
-10 -11 0 -6 -6 -17 -14 -25 -11 -11 -16 -11 -20 -1 -5 9 -7 9 -12 0 -8 -18
-24 -16 -24 2 0 8 -4 15 -9 15 -5 0 -12 8 -14 18 -4 14 -5 13 -6 -3 -1 -16 -9
-21 -31 -23 -26 -2 -30 1 -30 23 0 16 -6 25 -15 25 -8 0 -15 -9 -15 -20 0 -11
-7 -20 -15 -20 -8 0 -15 -6 -16 -12 0 -7 -5 -2 -11 12 -12 25 -12 25 -17 -10
-8 -50 -36 -52 -49 -3 l-9 38 -13 -32 c-11 -31 -34 -36 -51 -10 -9 13 -29 0
-39 -27 -6 -14 -9 -16 -9 -5 -1 9 -10 24 -20 33 -19 17 -19 17 -14 -3 6 -22
-12 -30 -20 -8 -4 9 -8 8 -16 -3 -9 -12 -11 -12 -17 3 -10 27 -27 20 -20 -8 6
-24 5 -25 -16 -13 -13 7 -26 17 -29 22 -4 4 -16 3 -28 -3 -29 -16 -27 0 4 29
14 13 25 29 25 37 0 7 4 13 9 13 16 0 33 88 27 141 -16 129 -128 220 -271 220
-110 0 -188 -43 -247 -139 -34 -55 -32 -201 3 -223 16 -10 -38 -60 -57 -52 -9
3 -14 -2 -15 -13 0 -11 -3 -14 -5 -7 -3 7 -11 10 -18 7 -7 -3 -25 0 -41 6 -22
9 -32 8 -43 -4 -11 -11 -20 -12 -38 -4 -20 9 -27 7 -44 -13 l-22 -24 5 23 c6
24 -11 30 -31 10 -9 -9 -12 -7 -12 10 0 12 -4 22 -10 22 -5 0 -10 -10 -10 -22
0 -21 0 -21 -20 -3 -20 18 -21 18 -27 -3 -7 -27 -17 -28 -42 -1 -12 13 -21 17
-26 10 -3 -6 -11 -8 -17 -5 -6 4 -15 0 -20 -7 -7 -10 -8 -5 -4 16 l6 30 -15
-25 -15 -25 6 30 6 30 -21 -25 -21 -25 0 24 c0 16 -4 21 -15 17 -9 -3 -15 0
-15 8 0 7 -6 19 -14 25 -8 7 -16 28 -19 49 -12 79 -28 157 -36 167 -4 5 -14
32 -20 59 -7 28 -23 73 -37 101 -13 29 -24 59 -24 68 0 9 -4 18 -9 21 -5 4
-12 30 -16 59 -4 28 -11 59 -16 68 -5 9 -14 100 -20 201 -11 171 -11 187 6
232 11 28 27 51 39 56 12 5 44 18 73 29 28 11 60 22 70 24 10 2 30 9 45 15 14
6 45 11 68 10 23 0 45 4 49 10 15 25 128 43 243 39 130 -5 165 -16 174 -52 6
-23 15 -29 36 -26 4 0 12 -8 18 -19 6 -11 17 -20 25 -20 17 0 20 26 5 35 -18
11 -10 25 15 25 20 0 27 -6 32 -30 6 -31 33 -43 33 -14 0 14 2 14 22 0 27 -20
68 -21 68 -3 0 8 -16 28 -35 46 l-36 32 28 28 c28 26 53 30 53 7 1 -14 68 -48
81 -40 6 3 28 -8 49 -25 24 -19 50 -31 68 -31 29 0 29 1 22 40 -7 36 -5 40 14
40 11 0 46 -7 76 -15 67 -18 64 -18 48 -2 -7 7 -28 19 -46 26 -52 22 -56 41
-12 63 33 17 44 18 80 8 23 -6 54 -23 68 -37 22 -22 28 -24 45 -13 17 10 23 8
42 -12 12 -13 27 -33 33 -44 9 -17 7 -20 -10 -21 -26 -2 -34 -11 -22 -23 13
-13 84 0 84 15 0 8 -17 32 -39 55 -28 30 -37 47 -34 64 4 18 -1 26 -16 31 -30
9 -61 58 -61 95 0 31 1 32 35 26 22 -4 35 -3 35 4 0 5 -4 10 -10 10 -23 0 -8
19 20 25 17 4 28 10 26 14 -3 4 21 8 52 9 33 2 63 8 71 17 19 19 9 22 -95 28
-57 3 -92 11 -120 26 -36 20 -29 21 27 5 16 -5 20 -2 17 13 -3 15 -14 19 -66
21 -45 2 -68 8 -81 21 -27 27 -108 42 -246 47 -66 3 -124 9 -129 14 -21 21
-155 6 -238 -25 -34 -13 -38 -13 -48 3 -8 12 -13 13 -16 5 -7 -15 -43 -17 -64
-3 -8 5 -12 10 -7 11 13 3 22 6 62 23 22 9 48 21 58 27 13 7 23 7 32 -1 9 -8
14 -5 18 11 5 20 10 21 74 15 37 -3 87 -8 111 -12 26 -4 42 -2 42 4 0 6 -15
13 -32 15 -32 4 -32 4 5 5 21 1 36 6 33 10 -3 5 53 15 124 22 107 11 147 11
237 0 100 -13 152 -31 120 -43 -6 -3 11 -3 38 -2 33 2 63 -3 88 -15 21 -11 46
-16 55 -13 13 4 14 3 3 -5 -18 -13 -5 -32 21 -32 13 0 18 5 15 14 -6 15 15 12
38 -4 6 -4 26 -10 45 -14 50 -9 128 -50 152 -81 21 -28 76 -60 86 -51 10 11
-21 56 -39 56 -10 0 -21 5 -24 10 -3 6 3 10 14 10 12 0 21 5 21 10 0 6 -11 10
-24 10 -13 0 -34 10 -47 23 -13 13 -43 29 -66 37 -24 7 -43 17 -43 21 0 5 -19
14 -42 21 l-43 13 43 3 c27 2 40 7 36 14 -4 7 7 9 34 6 22 -2 39 -2 37 1 -3 2
5 12 17 22 21 19 21 19 -13 16 -19 -2 -40 -6 -47 -11 -7 -4 -12 -2 -12 6 0 11
136 12 742 10 409 -1 748 -4 755 -7 6 -2 14 -18 18 -35 4 -17 9 -29 12 -27 5
6 -49 188 -78 261 -10 27 -19 52 -19 57 0 5 -12 34 -26 66 -15 32 -29 66 -31
77 -8 43 -178 385 -261 526 -100 171 -268 421 -303 450 -3 3 -10 12 -15 21
-11 20 -67 90 -115 144 -20 22 -44 51 -55 65 -54 70 -434 436 -512 492 -17 13
-58 44 -92 71 -33 26 -64 47 -69 47 -4 0 -16 9 -26 20 -10 11 -24 20 -32 20
-7 0 -13 4 -13 9 0 7 -132 103 -188 136 -10 5 -45 27 -80 48 -101 61 -294 162
-427 223 -144 66 -217 94 -430 164 -262 86 -343 110 -369 110 -12 0 -53 7 -91
15 -39 8 -113 22 -165 30 -52 8 -120 19 -150 25 -150 25 -247 31 -500 33 -151
1 -297 1 -325 -1z m90 -2370 c17 -12 45 -60 45 -77 0 -21 -33 -19 -53 3 -23
25 -34 82 -16 82 8 0 19 -4 24 -8z m-155 -6 c0 -2 3 -11 6 -20 9 -24 -33 -20
-46 4 -9 18 -8 20 15 20 14 0 25 -2 25 -4z m518 -66 c2 -6 11 -10 21 -10 9 0
25 -6 35 -13 18 -13 17 -16 -10 -63 -16 -27 -33 -62 -39 -79 -11 -32 -31 -33
-29 -2 1 14 -4 17 -19 13 -15 -3 -36 10 -79 51 -60 58 -69 73 -43 73 8 0 15 5
15 10 0 6 -16 10 -35 10 -28 0 -38 5 -47 24 -6 14 -8 31 -5 40 5 13 22 10 119
-15 62 -16 115 -34 116 -39z m-593 50 c3 -5 -3 -10 -14 -10 -12 0 -21 5 -21
10 0 6 6 10 14 10 8 0 18 -4 21 -10z m-82 -36 c42 -22 77 -55 77 -75 0 -29
-53 -69 -94 -69 -45 0 -39 -19 7 -21 l32 -2 -35 -6 c-23 -5 -40 -3 -50 6 -12
9 -31 10 -83 2 -67 -10 -171 -8 -235 6 l-33 7 46 33 c25 19 90 53 143 76 82
36 117 47 185 58 4 0 22 -6 40 -15z m101 0 c9 -3 16 -10 16 -15 0 -14 -24 -11
-46 6 -16 12 -17 14 -2 15 9 0 23 -3 32 -6z m110 -10 c3 -9 6 -22 6 -30 0 -12
-5 -12 -25 3 -13 10 -25 24 -25 31 0 18 37 15 44 -4z m-39 -44 c3 -5 1 -10 -4
-10 -6 0 -11 5 -11 10 0 6 2 10 4 10 3 0 8 -4 11 -10z m332 -51 c29 -28 59
-67 68 -85 9 -19 22 -34 30 -34 10 0 15 -10 15 -27 1 -27 1 -27 15 -9 12 16
17 17 29 6 13 -10 46 -66 46 -77 0 -9 -59 -1 -84 12 -29 16 -56 14 -56 -3 0
-5 23 -12 52 -15 28 -4 56 -11 62 -17 5 -5 18 -10 27 -10 33 0 29 -18 -16 -71
-25 -29 -45 -57 -45 -62 0 -4 -10 -5 -22 -2 -37 11 -103 82 -134 143 -24 47
-29 71 -32 151 -2 53 -8 100 -13 106 -11 11 -12 45 -1 45 4 0 31 -23 59 -51z
m331 22 c31 -15 64 -26 72 -24 12 4 12 3 1 -5 -11 -8 -11 -13 2 -33 9 -13 20
-54 25 -91 8 -66 8 -68 -13 -68 -33 0 -38 -12 -14 -31 15 -11 20 -22 16 -33
-6 -16 -10 -15 -39 5 -18 13 -37 29 -41 36 -4 7 -15 13 -22 13 -9 0 -15 10
-15 24 0 28 -25 92 -40 101 -5 3 -10 16 -11 28 0 21 -1 21 -10 -3 -6 -14 -16
-28 -24 -33 -10 -5 -13 -18 -8 -40 4 -25 3 -29 -6 -21 -15 14 -5 98 13 117 6
7 19 29 28 50 10 20 20 37 23 37 3 0 31 -13 63 -29z m669 -3 c-3 -8 -6 -5 -6
6 -1 11 2 17 5 13 3 -3 4 -12 1 -19z m-1297 -33 c12 7 50 -12 50 -25 0 -11
-33 -13 -66 -4 -12 3 -27 17 -33 30 -18 41 -13 49 14 20 14 -15 29 -24 35 -21z
m150 -27 c0 -16 -3 -28 -6 -28 -16 0 -33 38 -33 70 l-1 35 20 -25 c11 -14 20
-37 20 -52z m-240 26 c0 -8 -4 -12 -10 -9 -5 3 -10 10 -10 16 0 5 5 9 10 9 6
0 10 -7 10 -16z m2387 0 c-3 -3 -12 -4 -19 -1 -8 3 -5 6 6 6 11 1 17 -2 13 -5z
m-2980 -10 c-3 -3 -12 -4 -19 -1 -8 3 -5 6 6 6 11 1 17 -2 13 -5z m2606 -1
c-7 -2 -19 -2 -25 0 -7 3 -2 5 12 5 14 0 19 -2 13 -5z m1087 3 c0 -2 -8 -10
-17 -17 -16 -13 -17 -12 -4 4 13 16 21 21 21 13z m-1162 -13 c-10 -2 -26 -2
-35 0 -10 3 -2 5 17 5 19 0 27 -2 18 -5z m-2745 -10 c-7 -2 -19 -2 -25 0 -7 3
-2 5 12 5 14 0 19 -2 13 -5z m780 0 c-7 -2 -19 -2 -25 0 -7 3 -2 5 12 5 14 0
19 -2 13 -5z m-259 -53 c106 0 195 4 206 10 27 14 112 17 117 4 2 -6 -10 -17
-27 -24 -16 -7 -30 -16 -30 -20 0 -5 -48 -11 -107 -15 -143 -9 -191 -25 -65
-22 50 1 92 -1 92 -5 0 -13 -159 -85 -168 -76 -5 5 -48 10 -96 12 -75 3 -90 6
-112 27 l-25 24 33 9 c32 9 30 10 -37 21 -38 6 -81 17 -94 24 -23 13 -23 15
-7 26 9 7 26 11 36 8 11 -3 20 -1 20 5 0 16 43 20 61 5 11 -10 64 -13 203 -13z
m940 -38 c5 -18 6 -36 2 -40 -11 -10 -36 28 -36 56 0 33 23 23 34 -16z m-2757
6 c-3 -8 -6 -5 -6 6 -1 11 2 17 5 13 3 -3 4 -12 1 -19z m2253 7 c0 -8 -4 -15
-9 -15 -5 0 -14 7 -21 15 -10 13 -9 15 9 15 12 0 21 -6 21 -15z m89 -17 c6
-16 5 -27 -4 -37 -18 -19 -35 -5 -35 30 0 35 26 40 39 7z m1506 12 c-3 -5 -12
-7 -20 -3 -21 7 -19 13 6 13 11 0 18 -4 14 -10z m-2462 -7 c-7 -2 -19 -2 -25
0 -7 3 -2 5 12 5 14 0 19 -2 13 -5z m1954 1 c-3 -3 -12 -4 -19 -1 -8 3 -5 6 6
6 11 1 17 -2 13 -5z m104 -17 c-10 -9 -11 -8 -5 6 3 10 9 15 12 12 3 -3 0 -11
-7 -18z m-2578 -4 c-7 -2 -19 -2 -25 0 -7 3 -2 5 12 5 14 0 19 -2 13 -5z m150
0 c-7 -2 -21 -2 -30 0 -10 3 -4 5 12 5 17 0 24 -2 18 -5z m1180 -26 c10 -11
16 -26 13 -32 -3 -8 4 -10 19 -7 26 4 24 8 43 -90 8 -42 7 -48 -7 -48 -23 0
-91 19 -126 35 -16 7 -51 19 -77 25 -27 7 -48 15 -48 19 0 4 18 27 40 51 21
25 46 53 55 63 19 22 62 14 88 -16z m2079 20 c16 -1 23 -6 18 -11 -6 -6 -28
-2 -57 8 -26 9 -34 14 -18 10 17 -3 42 -7 57 -7z m281 6 c-7 -2 -19 -2 -25 0
-7 3 -2 5 12 5 14 0 19 -2 13 -5z m534 1 c-3 -3 -12 -4 -19 -1 -8 3 -5 6 6 6
11 1 17 -2 13 -5z m-3804 -11 c-7 -2 -21 -2 -30 0 -10 3 -4 5 12 5 17 0 24 -2
18 -5z m94 1 c-3 -3 -12 -4 -19 -1 -8 3 -5 6 6 6 11 1 17 -2 13 -5z m671 -38
c-29 -46 -73 -67 -121 -59 -37 6 -52 23 -20 23 25 0 103 31 103 41 0 9 53 40
58 34 2 -2 -7 -19 -20 -39z m2122 34 c-8 -5 -22 -9 -30 -9 -10 0 -8 3 5 9 27
12 43 12 25 0z m-2705 -10 c-28 -7 -27 -8 13 -9 23 0 42 -6 42 -11 0 -15 -71
-2 -90 16 -12 12 -9 14 25 13 39 -1 39 -2 10 -9z m760 0 c3 -5 1 -10 -4 -10
-6 0 -11 5 -11 10 0 6 2 10 4 10 3 0 8 -4 11 -10z m910 0 c-3 -5 -12 -10 -18
-10 -7 0 -6 4 3 10 19 12 23 12 15 0z m915 -4 c0 -2 -8 -10 -17 -17 -16 -13
-17 -12 -4 4 13 16 21 21 21 13z m-3043 -12 c-3 -3 -12 -4 -19 -1 -8 3 -5 6 6
6 11 1 17 -2 13 -5z m4090 0 c-3 -3 -12 -4 -19 -1 -8 3 -5 6 6 6 11 1 17 -2
13 -5z m-3617 -34 c0 -5 23 -10 50 -10 37 0 55 -5 70 -20 12 -12 15 -20 8 -21
-7 0 13 -8 45 -19 32 -10 67 -26 78 -36 20 -18 20 -18 -3 -28 -20 -9 -18 -11
22 -14 l45 -4 -32 -13 c-18 -8 -33 -19 -33 -25 0 -15 36 -12 50 5 7 8 18 15
26 15 19 0 81 -39 88 -55 2 -7 25 -23 50 -34 25 -11 46 -23 46 -28 0 -4 -12
-17 -27 -30 -30 -24 -12 -33 20 -9 23 18 60 9 88 -21 l23 -24 -39 2 c-22 1
-60 -3 -85 -9 -28 -7 -49 -7 -54 -2 -6 6 -17 3 -29 -8 -18 -16 -19 -16 -32 1
-13 18 -41 25 -30 7 3 -5 -1 -10 -9 -10 -9 0 -16 -4 -16 -10 0 -5 9 -10 19
-10 10 0 22 -7 25 -16 5 -14 -1 -15 -46 -10 -37 4 -46 3 -32 -3 12 -5 24 -17
28 -26 5 -14 16 -17 66 -13 38 3 66 11 79 22 26 24 81 14 81 -15 0 -11 -8 -22
-17 -26 -10 -3 -47 -19 -82 -35 -55 -26 -71 -29 -115 -24 -96 13 -149 36 -113
49 9 3 9 7 0 17 -16 18 28 86 116 180 39 41 71 76 71 77 0 1 -9 -1 -19 -5 -35
-13 -84 -63 -109 -113 -8 -15 -25 -38 -39 -53 -20 -22 -31 -26 -54 -21 -18 4
-29 3 -29 -4 0 -6 9 -11 21 -11 17 0 20 -5 17 -37 -2 -28 -7 -37 -18 -34 -8 2
-54 4 -101 5 -81 2 -176 28 -215 58 -13 9 -38 -15 -27 -25 3 -4 20 -7 37 -7
37 0 61 -14 52 -28 -4 -7 5 -10 22 -10 16 1 35 -3 43 -8 8 -5 38 -7 67 -5 33
2 52 -1 52 -8 0 -6 13 -11 29 -11 37 0 41 -7 32 -50 -7 -34 -8 -35 -86 -52
-153 -32 -135 -34 -204 27 -53 47 -67 55 -102 55 -78 0 -104 -41 -80 -126 5
-20 5 -49 -2 -78 -9 -39 -8 -53 7 -82 26 -57 7 -83 -60 -84 -12 0 -27 -7 -34
-15 -14 -17 -50 -20 -50 -5 0 6 -9 10 -20 10 -11 0 -20 5 -20 10 0 14 -57 13
-62 -2 -2 -6 -10 15 -18 46 -12 49 -12 59 0 66 12 7 12 17 4 48 -9 35 -8 42 8
53 21 16 23 29 4 29 -8 0 -19 14 -25 31 -7 22 -15 29 -26 25 -9 -3 -15 0 -15
9 0 8 -5 15 -10 15 -6 0 -15 11 -21 24 -14 30 -49 46 -101 46 -65 0 -106 -19
-113 -52 -5 -19 -13 -28 -26 -28 -10 0 -19 -6 -19 -14 0 -8 -10 -16 -22 -18
-19 -2 -23 -10 -24 -37 0 -20 -7 -37 -17 -43 -24 -13 -22 -48 3 -48 13 0 20
-7 20 -20 0 -11 -6 -20 -13 -20 -18 0 -47 -36 -47 -59 0 -27 -21 -81 -31 -81
-5 0 -9 -24 -9 -53 0 -47 -4 -57 -30 -80 -16 -15 -33 -27 -36 -27 -9 0 -54 49
-54 59 0 4 12 18 26 30 24 21 26 28 21 79 -3 30 -11 58 -16 62 -7 4 -9 44 -6
110 9 192 8 255 -3 275 -5 11 -15 46 -22 78 -6 31 -15 57 -20 57 -4 0 -11 18
-15 40 -4 22 -10 40 -14 40 -10 0 -44 121 -36 128 3 3 5 0 5 -7 0 -7 10 -21
23 -31 17 -14 19 -21 10 -31 -9 -9 -9 -15 2 -25 11 -11 98 -14 473 -14 l460 0
-5 -22 c-10 -41 5 -15 35 62 17 41 45 100 64 131 29 50 38 57 78 66 42 10 43
10 12 12 -29 1 -32 3 -22 21 9 16 21 20 65 20 30 0 55 -4 55 -10z m2103 -5
c-3 -9 -8 -14 -10 -11 -3 3 -2 9 2 15 9 16 15 13 8 -4z m1218 -8 c-10 -9 -11
-8 -5 6 3 10 9 15 12 12 3 -3 0 -11 -7 -18z m-1154 -9 c-3 -8 -6 -5 -6 6 -1
11 2 17 5 13 3 -3 4 -12 1 -19z m-577 -85 c0 -30 -5 -53 -10 -53 -23 0 -39 94
-23 135 11 30 32 -23 33 -82z m370 87 c0 -5 -2 -10 -4 -10 -3 0 -8 5 -11 10
-3 6 -1 10 4 10 6 0 11 -4 11 -10z m-2167 -17 c-13 -2 -33 -2 -45 0 -13 2 -3
4 22 4 25 0 35 -2 23 -4z m1592 -13 c13 -11 9 -50 -5 -50 -14 0 -73 45 -78 59
-4 11 3 13 33 8 20 -3 43 -11 50 -17z m318 2 c-2 -10 14 -51 37 -93 23 -41 39
-66 36 -57 -3 10 -1 20 3 22 5 3 7 -5 6 -17 -4 -35 -4 -35 -24 -42 -10 -3 -38
-30 -62 -60 -24 -30 -48 -55 -52 -55 -18 0 25 273 49 312 9 14 12 9 7 -10z
m568 -16 c-8 -20 -17 -26 -38 -25 l-28 2 28 4 c18 3 27 10 27 22 0 10 3 21 7
24 12 13 14 0 4 -27z m130 19 c19 -8 27 -14 19 -14 -14 0 -72 28 -59 29 4 0
22 -7 40 -15z m156 -1 c-3 -3 -12 -4 -19 -1 -8 3 -5 6 6 6 11 1 17 -2 13 -5z
m-2117 -19 c7 -8 27 -15 45 -15 35 0 162 -36 181 -51 6 -5 44 -14 85 -21 41
-6 75 -12 76 -12 1 -1 4 -13 8 -27 6 -23 3 -28 -24 -37 -17 -6 -53 -31 -79
-56 -27 -25 -58 -46 -69 -46 -11 0 -36 12 -56 28 -37 28 -70 49 -146 93 -50
29 -60 56 -35 96 18 28 18 33 -1 33 -9 0 -20 -11 -24 -24 -15 -38 -35 -37
-105 8 l-66 43 99 1 c77 2 101 -1 111 -13z m1705 5 c-3 -5 -13 -10 -21 -10 -8
0 -12 5 -9 10 3 6 13 10 21 10 8 0 12 -4 9 -10z m895 -15 c14 -19 14 -19 -2
-6 -10 7 -18 18 -18 24 0 6 1 8 3 6 1 -2 9 -13 17 -24z m313 18 c-13 -2 -35
-2 -50 0 -16 2 -5 4 22 4 28 0 40 -2 28 -4z m-5374 -6 c-2 -1 -13 -9 -24 -17
-19 -14 -19 -14 -6 3 7 9 18 17 24 17 6 0 8 -1 6 -3z m713 -14 c17 -21 40 -74
35 -80 -2 -2 -10 11 -18 29 -7 18 -22 41 -32 51 -11 9 -16 17 -10 17 5 0 16
-8 25 -17z m903 7 c-16 -4 -39 -8 -50 -8 -16 0 -15 2 5 8 14 4 36 8 50 8 22 0
22 -1 -5 -8z m1735 -47 c2 -2 -2 -8 -10 -13 -19 -12 -97 -13 -104 -2 -3 5 5
23 17 40 l22 31 35 -26 c19 -15 37 -28 40 -30z m140 27 c0 -32 -11 -50 -31
-50 -23 0 -24 12 -4 51 17 31 35 31 35 -1z m1615 20 c-3 -5 -12 -10 -18 -10
-7 0 -6 4 3 10 19 12 23 12 15 0z m95 5 c0 -6 -73 -25 -78 -20 -2 2 11 8 29
14 41 11 49 12 49 6z m-3490 -15 c-8 -5 -19 -10 -25 -10 -5 0 -3 5 5 10 8 5
20 10 25 10 6 0 3 -5 -5 -10z m113 3 c-13 -2 -35 -2 -50 0 -16 2 -5 4 22 4 28
0 40 -2 28 -4z m2124 1 c-3 -3 -12 -4 -19 -1 -8 3 -5 6 6 6 11 1 17 -2 13 -5z
m112 -6 c-8 -7 -20 -20 -28 -28 -11 -13 -12 -11 -1 9 11 21 10 23 -4 18 -10
-4 -15 -3 -11 3 3 6 18 10 33 10 22 0 23 -2 11 -12z m614 5 c-7 -2 -19 -2 -25
0 -7 3 -2 5 12 5 14 0 19 -2 13 -5z m154 1 c-3 -3 -12 -4 -19 -1 -8 3 -5 6 6
6 11 1 17 -2 13 -5z m-3309 -11 c-10 -2 -28 -2 -40 0 -13 2 -5 4 17 4 22 1 32
-1 23 -4z m1482 -14 c0 -6 -4 -7 -10 -4 -5 3 -10 11 -10 16 0 6 5 7 10 4 6 -3
10 -11 10 -16z m1607 15 c-3 -3 -12 -4 -19 -1 -8 3 -5 6 6 6 11 1 17 -2 13 -5z
m161 -1 c-16 -2 -40 -2 -55 0 -16 2 -3 4 27 4 30 0 43 -2 28 -4z m269 1 c-3
-3 -12 -4 -19 -1 -8 3 -5 6 6 6 11 1 17 -2 13 -5z m-3412 -14 c-3 -5 -12 -10
-18 -10 -7 0 -6 4 3 10 19 12 23 12 15 0z m3280 -11 l40 -6 -37 -2 c-41 -1
-68 7 -68 21 0 5 6 6 13 1 6 -4 30 -10 52 -14z m-4955 3 c0 -5 -7 -17 -15 -28
-14 -18 -14 -17 -4 9 12 27 19 34 19 19z m1568 -19 c-10 -2 -28 -2 -40 0 -13
2 -5 4 17 4 22 1 32 -1 23 -4z m3275 -10 c-18 -2 -48 -2 -65 0 -18 2 -4 4 32
4 36 0 50 -2 33 -4z m365 0 c-10 -2 -26 -2 -35 0 -10 3 -2 5 17 5 19 0 27 -2
18 -5z m-1024 -18 c-6 -14 21 -20 76 -17 8 0 18 -4 21 -10 4 -6 27 -11 53 -12
25 0 46 -5 46 -11 0 -7 3 -7 8 0 4 6 18 19 31 30 l24 20 -17 -27 c-9 -14 -23
-28 -29 -31 -14 -5 -212 35 -222 45 -4 4 -4 11 0 17 9 16 15 13 9 -4z m-744
-34 c0 -22 -5 -43 -11 -46 -5 -4 -7 -19 -4 -34 5 -22 1 -30 -18 -40 -42 -22
-97 10 -128 74 -22 47 -5 73 51 78 117 9 110 11 110 -32z m1250 17 c0 -6 -6
-5 -15 2 -8 7 -15 14 -15 16 0 2 7 1 15 -2 8 -4 15 -11 15 -16z m77 -12 c-7
-17 -52 -22 -61 -8 -3 5 9 6 26 4 28 -4 30 -3 25 18 -4 16 -3 20 5 12 6 -6 8
-18 5 -26z m-184 13 c7 -1 1 -4 -13 -8 -14 -4 -25 -14 -25 -23 0 -26 -13 -32
-20 -9 -6 18 -7 19 -25 4 -10 -9 -16 -23 -13 -32 4 -12 3 -13 -4 -3 -8 10 -12
10 -23 -3 -7 -8 -9 -15 -4 -15 5 0 26 -4 46 -9 21 -5 37 -6 36 -2 -2 18 3 31
13 31 5 0 7 -4 4 -10 -3 -5 -1 -10 5 -10 7 0 6 -6 -3 -14 -12 -12 -64 -16 -74
-6 -4 4 -21 7 -42 9 -16 1 -12 9 24 46 29 30 48 43 59 39 11 -4 16 -1 16 11 0
12 5 15 16 11 9 -3 21 -6 27 -7z m397 1 c0 -5 -8 -10 -17 -10 -15 0 -16 2 -3
10 19 12 20 12 20 0z m327 -30 c16 0 35 -5 43 -11 11 -7 4 -8 -25 -4 -53 9
-144 36 -150 46 -3 4 19 -1 50 -12 30 -10 67 -19 82 -19z m-2192 9 c11 -17 -1
-21 -15 -4 -8 9 -8 15 -2 15 6 0 14 -5 17 -11z m2025 1 c0 -5 -18 -10 -39 -10
-22 0 -43 5 -46 10 -4 6 12 10 39 10 25 0 46 -4 46 -10z m-3338 -25 c3 -14 1
-28 -3 -31 -5 -3 -9 9 -9 25 0 38 6 40 12 6z m2792 10 c-4 -8 -11 -12 -16 -9
-6 4 -5 10 3 15 19 12 19 11 13 -6z m349 -3 c-13 -2 -23 -9 -23 -17 0 -17 -23
-25 -75 -25 -24 0 -47 -5 -51 -11 -4 -8 -9 -8 -17 0 -6 6 -20 11 -31 12 -46 2
42 15 97 14 39 -1 57 3 57 12 0 17 31 32 49 25 12 -5 11 -8 -6 -10z m-1343
-52 c1 -8 5 -50 8 -92 4 -43 5 -78 1 -78 -3 0 -14 9 -24 20 -10 11 -24 20 -32
20 -10 0 -6 11 11 37 31 45 23 59 -10 18 -15 -19 -24 -25 -24 -14 0 8 5 20 12
27 9 9 9 15 0 24 -7 7 -12 18 -12 26 0 12 3 12 15 2 22 -18 31 -4 16 24 -19
35 -3 55 20 25 10 -13 19 -31 19 -39z m553 53 c-7 -2 -19 -2 -25 0 -7 3 -2 5
12 5 14 0 19 -2 13 -5z m885 0 c-10 -2 -18 -9 -18 -14 0 -5 -5 -9 -11 -9 -8 0
-8 5 1 15 7 8 20 14 29 14 13 -1 13 -2 -1 -6z m-1003 -30 c-6 -27 -12 -33 -49
-54 -18 -11 -35 1 -36 24 0 13 30 8 31 -5 0 -10 2 -10 6 0 2 6 11 12 18 12 7
0 15 7 19 15 3 8 1 15 -5 15 -6 0 -7 5 -4 10 13 21 27 9 20 -17z m201 7 c2
-35 5 -40 22 -41 11 0 12 -2 4 -6 -14 -6 -48 21 -64 50 -8 16 -6 18 14 15 13
-2 23 -10 24 -18z m984 10 c0 -5 8 -10 18 -10 9 0 23 -4 30 -8 8 -6 2 -9 -18
-9 -16 0 -30 4 -30 9 0 5 -10 13 -22 18 l-23 9 23 0 c12 1 22 -3 22 -9z m173
-4 c3 -8 -2 -18 -11 -21 -14 -6 -12 -10 13 -21 43 -19 62 -17 68 6 3 11 11 20
19 20 10 0 10 -3 -2 -11 -12 -9 -11 -10 8 -6 12 3 22 1 22 -4 0 -5 -9 -9 -20
-9 -11 0 -20 -4 -20 -10 0 -10 21 -14 49 -11 7 2 10 -2 6 -8 -8 -14 -52 -14
-60 -1 -3 6 -17 10 -31 10 -25 0 -64 18 -76 35 -9 13 1 27 14 19 7 -5 9 -1 5
9 -3 10 -2 17 2 17 5 0 11 -6 14 -14z m-763 -19 c8 -3 0 -6 -18 -6 -28 -1 -31
1 -20 13 7 8 15 10 18 6 3 -4 12 -10 20 -13z m-1693 -4 c2 -6 -16 -15 -39 -21
-24 -6 -55 -23 -68 -37 -13 -14 -28 -25 -34 -25 -17 0 47 61 84 80 38 19 52
20 57 3z m1057 2 c-4 -8 -11 -12 -16 -9 -6 4 -5 10 3 15 19 12 19 11 13 -6z
m316 6 c19 -5 21 -8 9 -13 -8 -3 -26 0 -40 8 -25 14 -11 17 31 5z m398 2 c-10
-2 -28 -2 -40 0 -13 2 -5 4 17 4 22 1 32 -1 23 -4z m499 -6 c5 -9 -67 -1 -76
9 -3 3 12 4 33 2 20 -1 40 -6 43 -11z m-1057 -31 c0 -21 4 -23 33 -21 50 4 58
-3 34 -31 -12 -14 -27 -22 -35 -19 -7 2 -10 1 -7 -4 3 -5 -4 -13 -16 -16 -12
-4 -44 -20 -71 -36 -57 -34 -58 -34 -58 -14 0 8 9 15 19 15 27 0 35 17 11 23
-17 4 -18 8 -7 36 6 17 15 31 19 31 4 0 8 9 8 20 0 24 8 25 32 3 17 -15 18
-15 18 1 0 10 -5 15 -12 11 -7 -4 -5 0 4 8 10 8 14 18 10 22 -4 5 -1 5 6 1 6
-4 12 -18 12 -30z m933 27 c-13 -2 -23 -9 -23 -14 0 -6 14 -7 34 -4 19 4 36 2
40 -3 3 -6 -26 -10 -79 -10 -52 0 -85 3 -85 10 0 6 16 9 39 6 28 -2 37 0 34 9
-4 9 5 13 28 12 24 -1 27 -3 12 -6z m495 0 c-10 -2 -28 -2 -40 0 -13 2 -5 4
17 4 22 1 32 -1 23 -4z m-2359 -33 c-16 -11 -29 -4 -29 16 0 12 4 13 21 3 17
-9 19 -13 8 -19z m1427 5 c-3 -8 -1 -15 3 -15 5 0 11 5 13 11 2 7 11 7 28 0
14 -5 21 -11 15 -12 -40 -7 -67 -7 -92 1 l-28 8 28 1 c15 1 27 6 27 11 0 6 3
10 6 10 3 0 4 -7 0 -15z m594 5 c0 -6 -11 -8 -27 -4 -40 10 -41 14 -5 14 18 0
32 -5 32 -10z m74 4 c8 -3 12 -12 9 -19 -4 -11 -9 -12 -24 -2 -32 20 -22 35
15 21z m277 -4 c5 0 9 -8 8 -17 0 -11 -3 -13 -6 -5 -2 6 -11 12 -18 12 -8 0
-17 5 -21 12 -5 8 -2 9 10 5 10 -4 22 -7 27 -7z m-2484 -22 c13 -12 23 -32 23
-45 0 -13 6 -23 14 -23 8 0 18 -4 21 -10 4 -6 -13 -10 -43 -10 -43 0 -50 3
-60 25 -7 14 -12 39 -12 55 0 37 23 40 57 8z m843 1 c0 -6 -4 -7 -10 -4 -5 3
-10 11 -10 16 0 6 5 7 10 4 6 -3 10 -11 10 -16z m1680 11 c0 -5 -5 -10 -11
-10 -5 0 -7 5 -4 10 3 6 8 10 11 10 2 0 4 -4 4 -10z m-1240 -10 c-10 -6 -3 -9
25 -9 22 1 55 -6 73 -13 29 -13 31 -16 18 -27 -9 -7 -23 -11 -32 -7 -8 3 -24
1 -35 -5 -22 -11 -83 4 -106 27 -11 11 -10 15 5 23 11 6 22 7 26 4 3 -3 6 -1
6 5 0 7 8 12 18 12 14 0 15 -2 2 -10z m-1420 -36 c6 -14 10 -36 10 -49 0 -21
-6 -24 -53 -30 -64 -8 -139 9 -131 29 5 14 127 74 152 75 7 1 17 -11 22 -25z
m275 16 c-3 -5 -13 -10 -21 -10 -8 0 -14 5 -14 10 0 6 9 10 21 10 11 0 17 -4
14 -10z m651 -55 c3 -25 10 -48 15 -51 13 -8 1 -24 -18 -24 -11 0 -14 6 -10
23 4 12 2 28 -2 36 -7 11 -11 9 -20 -8 -12 -21 -31 -29 -31 -12 0 13 43 80 52
81 4 0 10 -20 14 -45z m-636 26 c0 -5 3 -17 6 -25 5 -12 2 -15 -10 -10 -17 7
-22 44 -6 44 6 0 10 -4 10 -9z m1097 -23 c39 -14 40 -19 11 -37 -19 -12 -23
-11 -34 5 -8 11 -18 25 -24 32 -14 16 3 16 47 0z m-934 -23 c15 -15 28 -38 29
-53 0 -15 3 -49 4 -77 8 -113 0 -135 -46 -135 -28 0 -30 2 -30 39 0 44 -27
161 -41 176 -5 5 -9 24 -9 42 0 31 2 33 33 33 21 0 42 -9 60 -25z m862 -3 c-3
-9 -3 -13 1 -9 7 6 33 -21 34 -35 0 -8 -139 -2 -147 6 -3 2 13 14 35 25 23 11
43 25 47 30 9 16 37 0 30 -17z m-1619 -7 c-25 -19 -46 -19 -46 0 0 10 10 15
33 15 30 -1 31 -1 13 -15z m-71 -5 c3 -6 -5 -10 -19 -10 -13 0 -26 -5 -28 -11
-2 -6 -17 -9 -33 -7 l-30 4 35 16 c41 19 66 22 75 8z m135 -10 c0 -10 -9 -24
-19 -29 -15 -8 -20 -7 -24 8 -5 21 9 41 30 41 7 0 13 -9 13 -20z m385 -9 c7
-12 -12 -24 -25 -16 -11 7 -4 25 10 25 5 0 11 -4 15 -9z m-325 -11 c11 -7 7
-10 -18 -10 -20 0 -31 4 -27 10 8 13 26 13 45 0z m212 -7 c28 -25 22 -36 -18
-30 -45 8 -71 27 -52 38 21 14 50 10 70 -8z m220 -15 c26 -34 23 -58 -6 -58
-43 0 -57 10 -45 32 6 11 8 22 5 25 -8 8 -26 -7 -26 -23 0 -8 -5 -14 -11 -14
-5 0 -7 5 -4 10 3 6 1 10 -4 10 -13 0 -15 33 -3 44 14 14 76 -3 94 -26z m-285
-38 c36 -16 78 -30 94 -30 18 0 29 -5 29 -14 0 -18 -27 -29 -33 -13 -3 9 -8 9
-19 -1 -18 -15 -61 -7 -79 14 -7 8 -21 11 -35 8 -12 -3 -38 -1 -56 4 -18 6
-55 13 -82 17 -54 7 -52 16 9 39 51 20 92 14 172 -24z m1953 21 c89 -8 168
-38 215 -84 12 -12 31 -27 41 -33 28 -17 -73 -6 -107 12 -16 8 -63 13 -131 12
-115 0 -154 6 -208 32 -19 9 -55 26 -80 38 -44 21 -44 21 -20 32 24 10 96 8
290 -9z m-980 0 c0 -5 -11 -11 -25 -13 -17 -4 -25 -1 -25 8 0 8 11 14 25 14
14 0 25 -4 25 -9z m1229 -30 c16 -17 41 -33 57 -37 16 -4 37 -15 47 -25 10
-11 32 -19 50 -19 18 0 39 -5 47 -10 13 -8 12 -10 -2 -10 -10 0 -18 -4 -18
-10 0 -5 -14 -10 -31 -10 -20 0 -28 4 -23 11 5 9 -1 10 -19 5 -19 -4 -33 0
-51 15 -14 12 -33 27 -43 33 -67 40 -87 53 -105 69 -21 17 -20 17 21 17 35 0
48 -6 70 -29z m-1008 -3 c21 -26 24 -38 9 -38 -5 0 -10 7 -10 15 0 8 -11 17
-25 21 -28 7 -34 24 -9 24 9 0 24 -10 35 -22z m359 12 c12 -8 12 -10 -5 -10
-11 0 -27 5 -35 10 -12 8 -12 10 5 10 11 0 27 -5 35 -10z m-1840 -10 c0 -5 -4
-10 -9 -10 -6 0 -13 5 -16 10 -3 6 1 10 9 10 9 0 16 -4 16 -10z m1160 -1 c-13
-6 -33 -17 -42 -26 -10 -9 -18 -11 -18 -5 0 16 41 42 65 41 17 0 17 -2 -5 -10z
m-3742 -304 c-3 -71 -10 -183 -14 -248 -7 -113 -6 -119 15 -141 16 -17 20 -30
16 -49 -4 -14 -3 -32 2 -39 7 -11 32 -441 32 -550 0 -20 5 -39 11 -43 5 -3 10
-26 10 -50 0 -24 4 -46 9 -49 4 -3 7 -24 5 -47 -2 -23 1 -48 8 -56 8 -10 8
-20 -1 -39 -6 -14 -11 -31 -11 -39 0 -7 -5 -26 -11 -42 -9 -25 -11 -26 -21
-10 -7 14 -13 15 -23 7 -9 -8 -14 -6 -19 7 -7 16 -9 16 -25 -6 l-18 -24 -16
24 c-16 26 -20 132 -33 874 -4 193 -9 352 -13 355 -26 21 -42 143 -21 164 5 5
10 25 10 43 0 18 5 33 10 33 6 0 10 8 10 18 0 10 6 27 14 38 8 11 19 39 25 62
7 23 16 42 20 42 5 0 12 15 17 33 13 50 20 -112 12 -268z m3982 273 c0 -30
-15 -54 -24 -39 -13 20 -26 11 -26 -18 0 -25 -6 -31 -35 -41 -19 -6 -35 -16
-35 -21 0 -5 -4 -9 -10 -9 -5 0 -10 7 -10 15 0 8 4 15 9 15 5 0 24 20 42 44
22 29 41 44 54 43 13 -1 20 4 19 16 -1 9 2 17 7 17 5 0 9 -10 9 -22z m334 -3
c6 -25 31 -59 71 -97 16 -15 17 -21 6 -27 -20 -13 -4 -31 28 -31 39 0 43 9 21
38 -11 13 -20 28 -20 32 0 4 -18 26 -40 48 -22 22 -40 45 -40 52 0 9 4 9 13 2
7 -6 59 -16 115 -21 57 -6 112 -16 123 -21 22 -12 96 -157 105 -207 3 -18 10
-33 15 -33 5 0 9 -7 9 -15 0 -12 -14 -15 -64 -15 -54 0 -69 -4 -94 -25 -21
-18 -42 -25 -70 -25 -43 0 -92 17 -92 32 0 4 -8 8 -17 8 -25 0 -3 18 27 21 14
2 47 -7 74 -19 52 -23 66 -27 66 -14 0 8 -91 52 -108 52 -6 0 -12 5 -14 11 -3
9 -14 7 -38 -4 -58 -25 -87 -29 -94 -11 -3 9 -4 20 0 25 9 14 13 99 5 99 -14
0 -31 -24 -31 -44 0 -12 -5 -28 -11 -36 -8 -11 -9 -1 -6 40 3 30 2 64 -2 75
-5 11 -4 35 1 53 7 27 6 38 -7 52 -18 20 -9 28 36 29 21 1 28 -5 33 -24z
m-1593 -28 c52 -35 48 -47 -14 -47 -33 0 -127 18 -127 25 0 1 7 17 16 34 15
29 20 32 47 27 17 -4 52 -21 78 -39z m-141 25 c0 -19 -27 -32 -68 -32 -38 0
-43 2 -32 14 15 19 100 34 100 18z m262 -24 c25 -12 40 -48 19 -48 -20 0 -76
25 -98 43 -43 38 6 41 79 5z m627 10 c12 -15 11 -18 -3 -18 -10 0 -16 8 -16
22 0 12 1 19 3 17 1 -2 9 -12 16 -21z m305 -4 c6 -16 -5 -42 -37 -85 -13 -19
-25 -25 -40 -21 -17 4 -19 2 -15 -16 4 -12 2 -22 -2 -22 -14 0 -21 37 -14 75
7 37 24 48 24 15 0 -35 24 -21 43 25 20 47 31 55 41 29z m-611 -31 c-6 -15
-13 -16 -32 -4 -8 5 -11 16 -8 25 5 14 10 14 26 4 10 -6 17 -18 14 -25z m1045
25 c22 -22 14 -48 -13 -48 -29 0 -33 -15 -8 -29 15 -8 16 -14 7 -39 -9 -22 -9
-33 -1 -41 9 -9 8 -17 -1 -31 -16 -27 -15 -30 11 -31 l22 -2 -22 -4 c-24 -5
-30 -22 -12 -40 7 -7 -9 -12 -53 -16 -35 -4 -76 -10 -92 -13 -26 -6 -28 -5
-22 12 5 10 9 28 10 39 1 15 9 21 34 23 36 4 41 16 13 31 -27 15 -32 57 -10
77 11 10 19 22 19 29 0 15 78 95 93 95 7 0 18 -5 25 -12z m-1903 -18 c7 -11 8
-11 -62 -15 -41 -3 -53 0 -53 11 0 10 14 14 54 14 30 0 58 -4 61 -10z m710 0
c3 -5 1 -10 -4 -10 -6 0 -11 5 -11 10 0 6 2 10 4 10 3 0 8 -4 11 -10z m1698
-1 c20 -5 37 -14 37 -19 0 -4 33 -11 74 -15 67 -6 77 -11 107 -41 18 -19 37
-34 41 -34 13 0 9 35 -4 49 -11 11 -8 12 15 7 24 -6 86 -60 87 -77 0 -8 -47
-29 -64 -29 -8 0 -16 7 -20 15 -3 8 -11 15 -17 15 -11 0 -9 -28 6 -62 5 -13 3
-18 -8 -18 -9 0 -28 -10 -44 -22 -15 -13 -38 -29 -50 -35 -26 -15 -89 -17 -97
-4 -4 5 3 7 14 4 34 -9 23 23 -12 33 -26 8 -34 18 -46 54 -8 25 -19 47 -23 48
-5 2 -9 9 -9 15 0 7 -11 35 -25 62 -13 28 -25 53 -25 58 0 10 18 9 63 -4z
m170 -6 c-7 -2 -21 -2 -30 0 -10 3 -4 5 12 5 17 0 24 -2 18 -5z m-2463 -13 c0
-14 -43 -30 -53 -20 -5 4 -25 1 -45 -6 -46 -16 -118 -18 -128 -2 -5 8 4 9 34
4 32 -5 49 -2 74 14 35 21 118 28 118 10z m2543 3 c-7 -2 -21 -2 -30 0 -10 3
-4 5 12 5 17 0 24 -2 18 -5z m-2460 -19 c-32 -14 -63 -10 -63 7 0 5 21 9 48 8
l47 -1 -32 -14z m2497 6 c0 -5 -2 -10 -4 -10 -3 0 -8 5 -11 10 -3 6 -1 10 4
10 6 0 11 -4 11 -10z m-2277 -24 c53 0 97 -2 97 -6 0 -14 -26 -30 -50 -30 -29
0 -96 -31 -113 -53 -7 -8 -20 -17 -30 -21 -16 -5 -18 -2 -12 27 l6 32 -20 -24
c-12 -12 -18 -28 -15 -33 8 -13 -15 -28 -43 -28 -27 0 -31 30 -10 76 26 61 40
74 67 66 14 -4 69 -7 123 -6z m1327 -6 c0 -11 -5 -20 -11 -20 -5 0 -15 -13
-20 -30 -11 -31 -23 -38 -34 -20 -10 17 -25 11 -25 -10 0 -11 7 -20 15 -20 28
0 15 -26 -20 -43 -19 -9 -35 -21 -35 -25 0 -11 -50 -3 -67 10 -12 9 -93 -7
-93 -19 0 -3 22 -3 48 -1 47 5 72 -6 72 -32 0 -5 7 -10 15 -10 8 0 15 -7 15
-15 0 -8 -9 -15 -20 -15 -11 0 -29 -8 -40 -17 -18 -15 -110 -47 -110 -38 0 24
17 35 56 35 24 0 44 5 44 10 0 6 -16 10 -35 10 -19 0 -35 4 -35 10 0 5 -13 7
-30 5 -20 -2 -30 1 -30 10 0 24 12 45 25 45 8 0 18 15 24 33 9 27 23 38 74 62
34 16 67 29 72 30 6 0 28 12 50 26 87 56 95 58 95 29z m1015 10 c7 0 15 -11
17 -25 6 -32 0 -31 -35 0 -30 29 -35 40 -11 31 9 -3 21 -6 29 -6z m-2535 -15
c0 -8 -23 -48 -39 -68 -8 -9 -11 -20 -8 -24 4 -3 0 -17 -8 -30 -9 -13 -13 -28
-10 -33 10 -16 -5 -12 -22 6 -13 13 -29 14 -87 9 -39 -4 -84 -13 -100 -21 -16
-8 -34 -14 -41 -14 -6 0 -20 -7 -31 -15 -18 -15 -17 -16 14 -10 18 4 46 13 63
22 35 17 149 30 149 17 0 -5 -7 -20 -16 -32 -14 -21 -14 -22 5 -22 16 0 20 -6
18 -22 -2 -21 3 -23 48 -26 37 -1 46 0 33 8 -19 12 -14 48 10 68 23 17 72 16
72 -3 0 -20 7 -19 37 5 14 11 30 20 34 20 14 0 10 -27 -6 -44 -16 -15 -21 -46
-7 -46 4 0 15 14 24 31 14 24 22 29 39 24 18 -6 19 -5 7 14 -11 18 -10 23 7
35 11 9 28 16 38 16 11 0 21 9 24 20 6 22 42 27 60 9 19 -19 58 -6 62 21 3 24
2 24 -16 7 -26 -22 -39 -22 -46 3 -7 26 25 44 75 42 20 -1 40 3 43 8 11 18 25
0 25 -33 0 -33 -34 -132 -52 -155 -8 -9 -8 -16 0 -24 14 -14 32 -2 32 22 0 11
9 27 19 37 11 10 21 32 23 48 2 19 11 33 25 40 12 5 23 18 25 29 6 38 24 26
37 -24 8 -30 22 -57 36 -67 13 -10 53 -58 90 -107 71 -96 124 -155 140 -156 6
-1 21 -15 34 -31 26 -34 40 -122 61 -389 10 -114 10 -155 1 -158 -13 -4 -15
-68 -2 -76 4 -3 11 -42 15 -86 4 -45 11 -89 15 -98 5 -9 15 -68 23 -130 14
-110 14 -113 -7 -132 -12 -11 -26 -20 -33 -20 -6 0 -15 -7 -20 -16 -7 -13 -13
-14 -30 -5 -29 15 -32 14 -32 -11 l0 -22 -16 22 c-8 12 -20 20 -25 17 -5 -4
-9 6 -9 21 0 15 -3 24 -7 21 -3 -4 -15 0 -25 10 -10 9 -19 14 -21 12 -1 -2 -7
-13 -13 -24 -10 -16 -21 -20 -59 -18 -26 1 -51 7 -55 14 -6 8 -9 6 -11 -6 -4
-18 -5 -18 -23 0 -14 15 -22 16 -36 7 -21 -13 -30 -6 -30 20 0 10 -4 18 -10
18 -5 0 -7 -13 -4 -29 8 -39 -10 -47 -31 -14 -18 27 -18 27 -26 5 -10 -26 -44
-29 -53 -5 -6 15 -8 15 -16 3 -8 -13 -10 -13 -10 0 0 11 -3 11 -12 2 -8 -8
-15 -8 -24 -1 -10 8 -18 7 -29 -5 -20 -20 -34 -20 -41 -1 -9 22 -24 18 -24 -5
0 -21 -15 -27 -25 -10 -3 6 -17 7 -31 4 -18 -5 -24 -2 -24 10 0 9 -8 16 -20
16 -11 0 -20 7 -20 15 0 8 -4 15 -10 15 -5 0 -10 -4 -10 -10 0 -5 -3 -9 -7 -8
-5 1 -17 -2 -28 -8 -11 -5 -33 -8 -50 -6 -16 1 -38 3 -47 4 -10 1 -18 8 -18
14 0 6 -7 17 -16 24 -13 11 -16 10 -21 -9 -5 -18 -8 -19 -21 -9 -13 11 -15 10
-9 -4 3 -10 2 -20 -2 -23 -5 -3 -11 2 -15 10 -7 19 -26 20 -26 1 0 -24 -38 -6
-49 23 -5 14 -14 33 -20 41 -9 13 -12 13 -23 -3 -8 -10 -20 -16 -29 -12 -17 6
-17 7 -25 85 -3 30 -10 59 -15 65 -5 5 -9 22 -9 38 0 29 -15 65 -35 82 -6 6
-17 39 -24 75 -7 36 -16 70 -20 75 -16 21 -32 124 -23 142 7 12 5 27 -9 52
-23 44 -24 74 -3 92 15 12 16 11 10 -8 -9 -28 7 -37 27 -15 26 28 36 126 22
196 -10 47 -19 66 -44 86 -17 15 -31 31 -31 37 0 6 -9 21 -19 35 -11 13 -23
36 -26 51 -6 24 -63 77 -82 77 -5 0 -18 6 -28 14 -18 13 -18 15 11 43 39 39
57 105 38 142 -14 26 -14 26 34 40 26 7 55 17 64 22 10 5 29 9 42 9 24 0 25
-3 23 -50 -2 -59 17 -73 21 -15 2 22 8 45 13 51 15 18 81 23 105 7 18 -12 27
-11 65 7 32 14 66 20 122 20 42 0 77 -2 77 -5z m943 -19 c14 -13 29 -36 33
-50 3 -14 12 -26 20 -26 8 0 14 -8 14 -19 0 -22 -25 -45 -40 -36 -6 3 -10 -4
-11 -17 l0 -23 -17 24 c-23 32 -52 121 -40 121 6 0 7 11 4 25 -8 31 4 32 37 1z
m-443 -26 c0 -5 -4 -10 -10 -10 -5 0 -10 5 -10 10 0 6 5 10 10 10 6 0 10 -4
10 -10z m318 -40 c26 -35 44 -108 19 -77 -8 9 -22 17 -31 17 -9 0 -16 6 -16
14 0 7 -3 28 -6 45 -8 39 6 40 34 1z m-583 10 c-3 -5 -13 -10 -21 -10 -8 0
-14 5 -14 10 0 6 9 10 21 10 11 0 17 -4 14 -10z m2394 -31 c14 -41 15 -40 -12
-28 -18 8 -23 17 -19 35 6 33 18 30 31 -7z m-45 -15 c9 -23 1 -28 -22 -15 -12
6 -30 11 -41 11 -12 0 -21 5 -21 10 0 18 77 12 84 -6z m-2454 -14 c0 -5 -3
-10 -7 -10 -5 0 -19 -3 -33 -6 -24 -5 -24 -5 -6 10 22 18 46 21 46 6z m-140
-20 c-19 -13 -30 -13 -30 0 0 6 10 10 23 10 18 0 19 -2 7 -10z m60 0 c0 -5
-10 -10 -22 -10 -19 0 -20 2 -8 10 19 13 30 13 30 0z m1420 -40 c-15 -46 -47
-58 -35 -12 7 29 35 66 43 57 3 -3 -1 -23 -8 -45z m-624 -6 c8 3 11 0 8 -9 -3
-7 4 -23 15 -34 12 -12 21 -27 21 -33 0 -15 -90 80 -90 94 0 5 7 2 16 -7 9 -9
23 -14 30 -11z m1584 -20 c0 -2 -7 -4 -15 -4 -8 0 -15 4 -15 10 0 5 7 7 15 4
8 -4 15 -8 15 -10z m-1450 -20 c0 -8 -5 -12 -10 -9 -6 4 -8 11 -5 16 9 14 15
11 15 -7z m-2651 -383 c21 -12 67 -3 82 15 6 8 18 14 25 14 8 0 19 9 26 20 19
30 28 24 28 -19 0 -22 6 -42 13 -45 15 -6 -17 -29 -52 -36 -25 -5 -50 -34 -39
-45 3 -4 15 -2 25 4 19 9 19 8 9 -25 -6 -18 -16 -34 -22 -34 -6 0 -15 -46 -21
-120 -8 -86 -15 -124 -27 -135 -9 -9 -16 -23 -16 -31 0 -8 -4 -14 -10 -14 -5
0 -10 -7 -10 -15 0 -8 -4 -15 -10 -15 -5 0 -10 -11 -10 -25 0 -30 46 -75 78
-75 12 0 42 -9 66 -21 44 -20 45 -22 51 -77 4 -31 11 -73 16 -92 5 -19 9 -53
9 -75 -1 -32 -3 -37 -11 -22 -5 9 -18 17 -28 17 -11 0 -21 7 -25 15 -9 26 -26
17 -26 -14 0 -17 -4 -33 -10 -36 -5 -3 -10 3 -10 14 0 19 -2 20 -20 9 -11 -7
-20 -23 -20 -35 0 -21 -3 -19 -35 15 l-34 37 -2 -30 c-1 -17 -3 -23 -6 -12 -2
9 -9 17 -14 17 -5 0 -9 11 -9 25 0 50 -35 24 -45 -32 -6 -40 -25 -61 -25 -28
0 20 -13 19 -58 -3 -34 -16 -41 -17 -72 -4 -30 12 -32 16 -19 25 18 14 26 51
34 152 12 153 17 195 25 195 4 0 11 32 14 70 4 39 11 70 15 70 5 0 14 37 21
83 6 45 16 87 22 94 6 7 9 66 6 148 -1 74 0 135 5 135 4 0 7 8 7 18 0 36 13
31 52 -19 22 -27 47 -53 57 -58z m-448 -239 c12 -5 12 -89 0 -94 -5 -1 -16
-59 -24 -128 -11 -93 -15 -111 -16 -70 -1 30 -6 93 -11 140 -12 97 -13 259 -3
334 6 51 7 50 26 -64 11 -63 23 -116 28 -118z m1166 181 c-3 -21 -9 -66 -13
-101 -4 -34 -11 -65 -15 -68 -11 -6 -12 -41 -1 -48 4 -2 25 4 47 14 22 11 43
19 47 20 4 0 6 -65 3 -145 -5 -192 3 -244 42 -289 21 -24 30 -42 26 -56 -3
-11 0 -33 7 -49 15 -37 3 -63 -16 -36 -13 18 -15 18 -37 -3 -13 -12 -26 -20
-29 -17 -3 3 -8 -6 -12 -20 -8 -30 -26 -33 -33 -5 -6 23 -19 26 -26 8 -3 -8
-6 -6 -6 5 -1 24 -24 21 -36 -5 -13 -28 -43 -47 -53 -32 -4 6 -28 9 -57 7 -77
-6 -88 -5 -97 9 -9 15 0 90 13 98 5 3 14 49 20 102 11 88 14 96 32 92 25 -4
124 42 136 65 7 12 5 27 -5 45 -8 16 -14 35 -14 42 0 8 -4 14 -9 14 -11 0 -17
43 -26 172 l-6 87 41 12 c47 14 66 53 36 75 -16 11 -16 13 6 16 13 2 22 9 21
16 -2 6 2 12 8 12 8 0 10 -13 6 -37z m344 -465 c54 -107 76 -135 108 -143 35
-9 51 -24 51 -48 0 -11 9 -39 20 -62 30 -61 36 -105 16 -105 -9 0 -16 7 -16
15 0 17 -16 20 -25 5 -11 -17 -42 12 -56 52 -17 54 -38 45 -62 -25 -21 -64
-36 -65 -59 -1 -11 32 -32 45 -40 24 -1 -5 -4 33 -6 86 -1 52 -6 104 -11 116
-4 12 -4 33 0 47 5 14 11 47 14 74 4 26 10 47 15 47 4 0 27 -37 51 -82z
m-1540 -188 l-8 -95 -2 87 c0 47 2 94 6 104 12 31 13 2 4 -96z m4436 65 c40
-46 43 -87 10 -136 -45 -67 -151 -77 -207 -19 -47 48 -48 113 -2 164 26 28 52
36 111 32 49 -3 58 -7 88 -41z m1841 25 c18 -11 40 -36 49 -55 15 -32 16 -40
3 -78 -28 -79 -124 -112 -197 -67 -36 21 -63 66 -63 103 0 31 39 88 70 104 37
19 101 16 138 -7z m-5447 -27 c2 -77 -3 -188 -9 -198 -9 -13 -18 105 -14 178
4 63 21 78 23 20z m3289 -233 c0 -5 -4 -10 -10 -10 -5 0 -10 5 -10 10 0 6 5
10 10 10 6 0 10 -4 10 -10z m-4120 -931 c0 -286 3 -321 34 -341 22 -15 55 -7
75 18 20 26 21 38 21 320 l0 294 135 0 135 0 0 -318 c0 -368 -4 -391 -73 -463
-66 -69 -139 -100 -245 -107 -206 -11 -328 79 -352 259 -11 83 -14 612 -3 622
3 4 66 7 140 7 l133 0 0 -291z m1258 267 c85 -31 127 -81 137 -161 9 -71 -9
-129 -56 -180 l-40 -43 43 -25 c153 -90 142 -306 -20 -399 -48 -27 -67 -32
-148 -36 l-94 -5 0 112 0 111 49 0 c71 0 100 32 64 72 -11 13 -30 18 -65 18
l-48 0 0 115 0 115 24 0 c29 0 56 24 56 50 0 33 -28 50 -81 50 l-49 0 0 -320
0 -320 -140 0 -140 0 0 428 c0 236 3 432 8 436 4 5 108 6 232 3 172 -3 235 -8
268 -21z m734 -277 l3 -301 24 -19 c31 -25 66 -24 85 3 14 19 16 67 16 320 l0
298 141 0 140 0 -3 -332 -3 -333 -27 -51 c-28 -52 -87 -113 -135 -137 -40 -21
-125 -37 -191 -37 -116 0 -215 44 -265 118 -52 76 -57 119 -57 459 l0 313 135
0 134 0 3 -301z m980 166 c23 -74 46 -131 49 -127 4 4 22 50 40 102 18 52 38
110 46 128 l13 32 151 0 150 0 -6 -22 c-8 -28 -10 -32 -125 -283 -51 -110 -96
-210 -101 -223 -7 -18 -85 -193 -155 -350 -14 -29 -34 -36 -34 -12 0 5 -12 35
-26 67 -14 32 -44 99 -66 148 -21 50 -47 108 -57 130 -18 40 -30 67 -156 350
-37 82 -71 160 -76 172 l-9 23 160 0 159 0 43 -135z m968 -300 l0 -435 -140 0
-140 0 0 435 0 435 140 0 140 0 0 -435z m572 363 c14 -40 33 -101 43 -135 10
-35 21 -63 24 -63 6 0 17 32 79 217 l17 53 153 0 c83 0 152 -1 152 -3 0 -8
-54 -135 -105 -247 -69 -152 -76 -169 -154 -345 -118 -266 -134 -300 -140
-307 -4 -4 -25 34 -48 85 -23 50 -76 169 -119 262 -70 157 -102 228 -125 280
-4 11 -27 61 -50 110 -22 50 -47 107 -54 128 l-14 37 158 0 158 0 25 -72z
m988 -363 l0 -435 -140 0 -140 0 0 435 0 435 140 0 140 0 0 -435z m-3588 -540
c26 -9 61 -29 77 -44 36 -34 45 -95 39 -252 -5 -132 -17 -153 -104 -188 -48
-20 -82 -25 -185 -29 -197 -7 -338 29 -368 94 -14 32 -15 315 0 346 16 35 69
67 140 83 88 20 335 14 401 -10z m2304 1 c62 -19 81 -39 90 -94 l7 -42 -136 0
-136 0 -3 33 c-3 30 -5 32 -42 32 -46 0 -68 -24 -50 -52 6 -10 68 -38 140 -64
71 -25 146 -53 166 -62 49 -21 78 -69 78 -128 0 -96 -64 -128 -275 -136 -146
-6 -246 6 -309 37 -48 23 -66 53 -66 110 l0 40 134 0 135 0 3 -47 3 -48 44 0
c56 0 73 22 51 62 -16 28 -39 39 -235 108 -105 37 -145 75 -145 138 0 58 26
91 88 111 70 22 93 24 257 21 103 -2 166 -8 201 -19z m-2926 -31 l0 -44 -87
-3 -88 -3 -3 -212 -2 -213 -140 0 -140 0 -2 213 -3 212 -87 3 -88 3 0 44 0 45
320 0 320 0 0 -45z m1130 -159 c0 -112 3 -211 6 -220 8 -22 70 -22 78 0 3 9 6
108 6 220 l0 204 145 0 145 0 0 -200 c0 -236 -5 -256 -72 -288 -61 -30 -134
-42 -252 -42 -171 0 -271 25 -321 80 -18 20 -20 39 -23 236 l-4 214 146 0 146
0 0 -204z m1070 182 c52 -24 72 -52 77 -105 7 -65 -20 -99 -82 -109 -52 -7
-51 -19 2 -28 71 -12 78 -23 81 -146 l4 -110 -136 0 -136 0 0 110 c0 119 -5
130 -64 130 l-26 0 0 -120 0 -120 -145 0 -145 0 0 261 0 260 268 -3 c220 -3
273 -7 302 -20z m-2691 -685 c6 -21 11 -44 11 -50 0 -29 18 -10 31 35 11 33
21 48 35 50 17 2 23 -6 34 -53 7 -31 17 -58 21 -60 4 -3 10 16 14 41 9 61 14
74 32 74 9 0 12 -7 9 -17 -3 -10 -10 -38 -16 -63 -19 -76 -21 -80 -39 -80 -13
0 -22 14 -32 51 -8 28 -18 51 -24 51 -5 0 -16 -23 -24 -51 -10 -37 -19 -51
-32 -51 -18 0 -20 4 -39 80 -6 25 -13 53 -16 63 -4 11 0 17 10 17 9 0 19 -15
25 -37z m381 12 c0 -22 3 -23 24 -15 34 12 66 -12 66 -51 0 -54 -14 -68 -70
-67 l-50 1 0 79 c0 63 3 78 15 78 9 0 15 -9 15 -25z m1190 0 c0 -22 3 -23 24
-15 34 12 66 -12 66 -51 0 -54 -14 -68 -70 -67 l-50 1 0 79 c0 63 3 78 15 78
9 0 15 -9 15 -25z m447 19 c-3 -3 -12 -4 -19 -1 -8 3 -5 6 6 6 11 1 17 -2 13
-5z m220 0 c-3 -3 -12 -4 -19 -1 -8 3 -5 6 6 6 11 1 17 -2 13 -5z m73 -21 c24
-21 26 -33 5 -33 -11 0 -15 -11 -15 -35 0 -22 6 -38 15 -41 8 -4 15 -10 15
-15 0 -14 -36 -11 -47 4 -15 17 -22 101 -11 121 11 20 13 20 38 -1z m-2007
-35 c30 -35 22 -48 -29 -48 -32 0 -44 -4 -41 -12 2 -8 19 -12 41 -11 37 2 49
-10 20 -21 -51 -19 -94 6 -94 55 0 63 61 85 103 37z m307 11 c0 -5 -7 -9 -15
-9 -15 0 -20 12 -9 23 8 8 24 -1 24 -14z m141 -6 c21 -58 22 -59 34 -18 15 50
37 52 49 3 12 -47 23 -48 32 -3 3 19 10 37 14 40 19 12 20 -18 4 -70 -22 -69
-49 -76 -59 -15 -8 47 -20 45 -29 -5 -10 -53 -39 -47 -55 13 -7 26 -15 55 -18
65 -9 28 17 19 28 -10z m204 -19 c7 -40 15 -38 31 9 15 43 35 40 49 -8 l12
-40 12 30 c6 17 14 36 16 43 7 19 28 14 22 -5 -3 -10 -11 -39 -18 -65 -17 -62
-41 -64 -59 -5 l-14 42 -9 -42 c-14 -63 -39 -58 -61 12 -16 52 -15 82 4 70 4
-3 11 -21 15 -41z m195 6 c12 -44 30 -54 30 -17 0 29 23 62 37 54 6 -4 14 -23
17 -42 7 -34 26 -50 26 -21 0 28 21 69 30 60 5 -5 2 -32 -8 -66 -20 -69 -47
-80 -58 -23 -3 19 -10 35 -14 35 -10 0 -20 -26 -20 -51 0 -12 -7 -19 -19 -19
-14 0 -24 13 -35 47 -9 26 -16 55 -16 65 0 33 19 19 30 -22z m260 -8 c0 -50
14 -70 37 -56 12 8 19 26 21 58 5 69 26 54 30 -21 l3 -60 -51 -1 c-39 -1 -52
3 -60 18 -11 21 -14 93 -4 103 13 13 24 -5 24 -41z m322 -12 c2 -37 6 -45 23
-45 17 0 21 8 25 49 8 77 30 72 30 -7 l0 -65 -37 0 c-67 -1 -73 4 -73 62 0 83
26 88 32 6z m150 13 l21 -48 14 40 c15 43 29 62 39 52 4 -3 -3 -33 -16 -67
-29 -78 -48 -79 -78 -2 -25 66 -26 72 -11 72 5 0 20 -21 31 -47z m138 -24 c0
-46 -3 -59 -15 -59 -12 0 -15 13 -15 58 0 32 3 62 6 65 15 15 24 -8 24 -64z
m76 20 l22 -44 12 42 c11 36 35 62 46 50 2 -2 -7 -30 -20 -63 -32 -78 -50 -78
-82 0 -28 69 -28 69 -11 64 6 -3 22 -24 33 -49z m144 -20 c0 -46 -3 -59 -15
-59 -12 0 -15 13 -15 58 0 32 3 62 6 65 15 15 24 -8 24 -64z m203 60 c28 -15
37 -28 37 -58 0 -55 -70 -81 -110 -41 -32 32 -20 82 23 100 29 11 25 12 50 -1z
m107 -45 c4 -41 8 -49 25 -49 17 0 20 8 23 53 4 75 26 64 30 -15 l3 -61 -53 2
-53 1 -3 64 c-2 48 0 62 10 59 7 -3 15 -26 18 -54z m190 40 c0 -7 -9 -14 -20
-17 -16 -4 -20 -14 -20 -51 0 -34 -4 -46 -15 -46 -12 0 -15 14 -15 63 l0 62
35 0 c19 0 35 -5 35 -11z m112 5 c16 -9 18 -13 7 -20 -8 -4 -19 -3 -26 3 -13
11 -43 4 -43 -9 0 -5 19 -15 42 -23 23 -8 43 -20 45 -26 6 -19 -26 -44 -57
-44 -40 0 -65 11 -49 20 7 5 20 3 29 -2 18 -12 50 -5 50 10 0 5 -18 14 -39 21
-57 16 -65 52 -17 71 29 12 34 12 58 -1z m217 -5 c17 -12 20 -19 10 -24 -7 -5
-20 -3 -30 3 -13 8 -21 7 -33 -2 -34 -28 -3 -87 33 -64 10 6 24 8 31 3 10 -6
8 -11 -8 -19 -31 -16 -60 -13 -82 9 -27 27 -25 56 5 85 28 29 42 31 74 9z
m136 6 c33 -13 48 -52 33 -85 -13 -30 -50 -42 -87 -29 -23 8 -26 15 -26 54 0
37 4 46 25 57 30 15 24 15 55 3z m130 0 c11 4 26 3 33 -3 9 -7 21 -6 40 2 23
11 29 10 44 -9 25 -31 25 -110 0 -110 -14 0 -17 7 -14 38 3 44 -10 67 -32 59
-11 -5 -16 -19 -16 -52 0 -33 -4 -45 -15 -45 -11 0 -15 11 -15 38 0 45 -13 67
-34 59 -11 -5 -16 -19 -16 -52 0 -33 -4 -45 -15 -45 -12 0 -15 14 -15 65 0 59
2 65 18 57 9 -5 26 -6 37 -2z m-2725 -110 c0 -5 -7 -10 -15 -10 -8 0 -15 5
-15 10 0 6 7 10 15 10 8 0 15 -4 15 -10z m740 0 c0 -5 -7 -10 -15 -10 -8 0
-15 5 -15 10 0 6 7 10 15 10 8 0 15 -4 15 -10z m1590 0 c0 -5 -7 -10 -15 -10
-8 0 -15 5 -15 10 0 6 7 10 15 10 8 0 15 -4 15 -10z m-2832 -187 c2 -9 -11
-13 -47 -13 -44 0 -51 -3 -51 -20 0 -17 7 -20 45 -20 57 0 59 -18 3 -22 -35
-2 -44 -7 -46 -25 -3 -20 2 -22 44 -25 27 -2 49 -8 52 -15 3 -10 -14 -13 -62
-13 l-66 0 0 85 0 86 62 -3 c38 -2 63 -8 66 -15z m517 7 c3 -5 -3 -10 -15 -10
-12 0 -18 5 -15 10 3 6 10 10 15 10 5 0 12 -4 15 -10z m73 -78 c2 -68 0 -82
-13 -82 -12 0 -15 15 -15 86 0 64 3 85 13 82 8 -3 13 -32 15 -86z m450 60 c3
-18 8 -21 28 -16 34 9 64 -20 64 -61 0 -43 -25 -63 -77 -62 l-43 2 0 83 c0 62
3 83 13 80 6 -3 13 -14 15 -26z m452 18 c0 -5 -7 -10 -15 -10 -8 0 -15 5 -15
10 0 6 7 10 15 10 8 0 15 -4 15 -10z m205 0 c3 -5 -1 -10 -10 -10 -9 0 -13 5
-10 10 3 6 8 10 10 10 2 0 7 -4 10 -10z m873 -23 c15 -14 22 -32 22 -57 0 -52
-27 -74 -96 -76 -47 -2 -57 1 -70 21 -13 20 -13 27 0 58 15 38 49 55 70 38 10
-8 17 -7 26 4 11 13 7 15 -24 15 -43 0 -91 -22 -100 -45 -15 -39 -6 -83 20
-104 32 -25 106 -28 144 -6 36 20 46 18 25 -5 -28 -31 -83 -44 -132 -31 -51
14 -83 52 -83 98 0 59 27 95 90 117 27 9 84 -5 108 -27z m612 23 c0 -5 -7 -10
-15 -10 -8 0 -15 5 -15 10 0 6 7 10 15 10 8 0 15 -4 15 -10z m70 -75 c0 -69
-3 -85 -15 -85 -12 0 -15 16 -15 85 0 69 3 85 15 85 12 0 15 -16 15 -85z
m-1464 45 c19 0 18 -19 -1 -26 -9 -4 -15 -19 -15 -39 0 -20 6 -35 15 -39 21
-8 19 -26 -4 -26 -28 0 -44 26 -39 65 2 19 0 35 -4 35 -14 0 -9 23 10 43 15
17 17 17 20 3 2 -9 10 -16 18 -16z m-1570 -13 c4 -3 15 -2 26 4 10 6 28 7 38
4 17 -5 20 -16 20 -66 0 -46 -3 -59 -15 -59 -11 0 -15 12 -15 50 0 43 -3 50
-20 50 -17 0 -20 -7 -20 -50 0 -41 -3 -50 -18 -50 -14 0 -17 7 -14 38 3 44
-10 67 -32 59 -11 -5 -16 -19 -16 -52 0 -33 -4 -45 -15 -45 -12 0 -15 14 -15
63 l0 64 45 -2 c24 0 47 -4 51 -8z m210 5 c6 -4 13 -32 16 -63 l4 -56 -42 -1
c-78 -1 -101 48 -32 66 36 9 52 42 21 42 -11 0 -24 -5 -31 -12 -6 -6 -15 -8
-19 -4 -20 20 56 46 83 28z m92 -60 c3 -54 1 -62 -15 -62 -16 0 -18 8 -15 66
5 85 26 82 30 -4z m220 56 c-6 -18 -28 -21 -28 -4 0 9 7 16 16 16 9 0 14 -5
12 -12z m144 -35 c3 -41 6 -48 26 -51 20 -3 22 0 22 47 0 39 4 51 15 51 12 0
15 -14 15 -63 l0 -64 -43 1 c-23 1 -48 5 -55 10 -18 11 -16 116 2 116 11 0 16
-14 18 -47z m310 0 c2 -37 7 -49 22 -51 24 -5 36 14 36 61 0 26 4 37 15 37 12
0 15 -14 15 -63 l0 -64 -47 0 c-27 0 -54 4 -60 10 -19 14 -17 117 1 117 11 0
16 -14 18 -47z m158 1 c14 -50 22 -48 40 9 6 21 18 37 26 37 11 0 13 -6 8 -22
-18 -57 -44 -108 -56 -108 -7 0 -23 25 -35 55 -27 65 -28 75 -9 75 7 0 19 -20
26 -46z m140 -19 c0 -51 -3 -65 -15 -65 -12 0 -15 14 -15 65 0 51 3 65 15 65
12 0 15 -14 15 -65z m68 23 l19 -43 18 43 c9 23 23 42 31 42 18 0 18 4 -10
-66 -23 -57 -48 -79 -59 -52 -46 116 -47 118 -32 118 8 0 23 -19 33 -42z m142
-23 c0 -51 -3 -65 -15 -65 -12 0 -15 14 -15 65 0 51 3 65 15 65 12 0 15 -14
15 -65z m238 38 c30 -40 -3 -103 -53 -103 -68 0 -88 100 -25 123 23 9 64 -2
78 -20z m74 -20 c3 -41 6 -48 26 -51 20 -3 22 0 22 47 0 39 4 51 15 51 12 0
15 -14 15 -63 l0 -62 -42 -2 c-24 0 -49 4 -55 9 -19 15 -17 118 1 118 11 0 16
-14 18 -47z m198 35 c0 -5 -9 -12 -20 -15 -17 -4 -20 -14 -20 -54 0 -37 -4
-49 -15 -49 -12 0 -15 14 -15 63 l0 63 35 1 c19 1 35 -3 35 -9z m104 6 c28
-11 17 -23 -16 -21 -49 3 -49 -14 0 -31 35 -11 43 -18 40 -35 -4 -26 -45 -43
-82 -33 -43 11 -31 27 15 20 52 -9 51 14 -2 31 -39 13 -50 42 -23 62 19 14 43
17 68 7z m384 -6 c9 -9 12 -9 12 0 0 7 7 12 15 12 12 0 15 -15 15 -72 0 -40
-4 -78 -8 -84 -17 -27 -95 -27 -105 -1 -3 8 9 11 39 8 40 -3 44 -1 44 20 0 18
-3 20 -12 11 -30 -30 -78 3 -78 54 0 48 49 81 78 52z m169 -1 c7 -4 21 -3 32
3 45 23 71 -3 71 -71 0 -40 -3 -49 -17 -49 -15 0 -18 9 -18 47 0 42 -3 48 -22
51 -21 3 -23 0 -23 -47 0 -44 -3 -51 -20 -51 -17 0 -20 7 -20 50 0 42 -3 50
-19 50 -20 0 -31 -25 -31 -72 0 -18 -5 -28 -15 -28 -12 0 -15 14 -15 64 l0 63
43 -1 c23 -1 48 -5 54 -9z m225 1 c10 -8 18 -32 20 -64 l3 -51 -45 0 c-50 0
-70 10 -70 38 0 13 12 22 40 30 22 7 40 16 40 21 0 15 -30 21 -45 8 -9 -7 -19
-10 -23 -6 -9 10 27 36 48 36 9 0 23 -6 32 -12z m88 -53 c0 -51 -3 -65 -15
-65 -12 0 -15 14 -15 65 0 51 3 65 15 65 12 0 15 -14 15 -65z m261 55 c31 -17
22 -30 -18 -27 -36 2 -38 0 -38 -28 0 -27 3 -30 35 -31 53 -1 57 -3 36 -19
-43 -32 -106 -2 -106 50 0 28 32 65 56 65 8 0 24 -5 35 -10z m157 -6 c15 -10
22 -25 22 -49 0 -58 -69 -86 -110 -45 -27 27 -25 56 5 85 28 29 51 31 83 9z
m158 3 c4 -3 15 -2 26 4 10 6 28 7 38 4 17 -5 20 -16 20 -66 0 -46 -3 -59 -15
-59 -11 0 -15 12 -15 50 0 43 -3 50 -20 50 -17 0 -20 -7 -20 -50 0 -43 -3 -50
-20 -50 -17 0 -20 7 -20 50 0 43 -3 50 -20 50 -17 0 -20 -7 -20 -50 0 -38 -4
-50 -15 -50 -12 0 -15 14 -15 63 l0 64 45 -2 c24 0 47 -4 51 -8z m-3666 -57
c0 -5 -13 -10 -30 -10 -16 0 -30 5 -30 10 0 6 14 10 30 10 17 0 30 -4 30 -10z
m648 -48 c2 -7 -3 -12 -12 -12 -9 0 -16 7 -16 16 0 17 22 14 28 -4z m2582 3
c0 -8 -7 -15 -15 -15 -16 0 -20 12 -8 23 11 12 23 8 23 -8z m-3330 -190 c0 -9
-9 -15 -25 -15 -23 0 -24 -3 -27 -67 -2 -42 -8 -68 -15 -71 -10 -3 -13 15 -13
67 0 68 -1 70 -27 73 -14 2 -28 9 -31 16 -3 9 15 12 67 12 56 0 71 -3 71 -15z
m180 -70 c0 -69 -3 -85 -15 -85 -12 0 -15 16 -15 85 0 69 3 85 15 85 12 0 15
-16 15 -85z m282 68 c26 -23 25 -106 -2 -133 -42 -42 -90 -8 -90 65 0 71 49
107 92 68z m168 5 c0 -6 -7 -20 -17 -30 -9 -10 -24 -41 -34 -70 -9 -29 -22
-54 -28 -56 -19 -6 -12 43 12 91 l24 46 -35 3 c-20 2 -37 9 -40 16 -3 9 13 12
57 12 40 0 61 -4 61 -12z m111 2 c22 -12 25 -40 7 -59 -10 -11 -10 -14 0 -18
6 -3 12 -18 12 -34 0 -38 -37 -58 -75 -41 -32 15 -42 39 -26 64 8 13 8 24 1
38 -8 15 -6 24 10 40 22 22 42 25 71 10z m143 -6 c18 -18 21 -40 6 -49 -6 -4
-4 -15 6 -30 27 -41 -15 -86 -66 -70 -27 9 -44 41 -26 48 8 3 17 -1 20 -9 7
-18 42 -18 50 1 3 8 -4 21 -16 29 -21 15 -21 16 -4 35 21 23 8 34 -29 25 -29
-7 -34 10 -7 25 25 15 48 13 66 -5z m136 -69 c0 -69 -3 -85 -15 -85 -12 0 -15
13 -15 60 0 58 -1 60 -21 50 -33 -18 -35 -3 -3 29 48 47 54 41 54 -54z m151
75 c31 -17 24 -58 -18 -96 l-37 -34 37 0 c26 0 37 -4 37 -15 0 -12 -13 -15
-55 -15 -67 0 -70 11 -15 65 47 46 53 75 15 75 -14 0 -25 -4 -25 -10 0 -5 -7
-10 -15 -10 -19 0 -19 14 1 34 18 18 47 20 75 6z m139 -8 c19 -16 21 -22 11
-40 -10 -18 -9 -25 4 -38 19 -19 5 -50 -30 -66 -19 -9 -30 -7 -50 6 -14 9 -25
20 -25 25 0 16 28 20 34 5 7 -19 35 -18 43 2 4 10 -1 22 -12 30 -17 13 -18 15
-1 33 21 23 8 34 -29 25 -29 -7 -34 10 -7 25 25 15 37 13 62 -7z m141 -3 c18
-18 21 -30 16 -72 -10 -110 -107 -99 -107 12 0 40 4 53 22 65 30 21 44 20 69
-5z m143 5 c19 -18 20 -36 5 -51 -8 -8 -7 -16 2 -30 16 -26 6 -50 -25 -65 -46
-20 -99 35 -65 69 8 8 7 16 -2 31 -27 43 48 83 85 46z m133 1 c45 -32 38 -124
-11 -147 -20 -9 -30 -8 -52 7 -18 12 -23 20 -15 28 7 7 15 6 25 -3 20 -16 46
-6 46 19 0 14 -5 18 -19 14 -49 -13 -81 45 -45 81 20 20 43 20 71 1z m109 -2
c-2 -10 -12 -46 -22 -81 -15 -57 -34 -91 -34 -62 0 12 26 121 35 148 7 19 27
14 21 -5z m104 7 c11 -6 22 -26 26 -44 15 -82 -28 -137 -81 -102 -21 14 -25
24 -25 68 0 74 31 104 80 78z m170 1 c0 -5 -13 -35 -30 -66 -16 -31 -30 -66
-30 -76 0 -10 -7 -19 -15 -19 -21 0 -18 27 10 88 l24 52 -34 0 c-24 0 -35 5
-35 15 0 12 13 15 55 15 30 0 55 -4 55 -9z m111 -1 c21 -12 27 -60 7 -60 -6 0
-4 -7 5 -18 23 -25 21 -48 -5 -66 -30 -21 -54 -20 -78 4 -24 24 -25 34 -4 55
13 12 14 19 5 28 -38 38 19 84 70 57z m149 -10 c31 -31 28 -102 -6 -129 -32
-25 -47 -26 -69 -5 -23 23 -4 40 24 22 18 -11 23 -11 31 2 18 28 12 41 -15 34
-34 -8 -68 21 -59 50 14 46 61 59 94 26z m142 3 c26 -23 25 -106 -2 -133 -24
-24 -39 -25 -66 -6 -15 11 -19 27 -19 71 0 44 4 60 19 71 26 18 45 18 68 -3z
m148 -33 c0 -27 5 -50 10 -50 6 0 10 -7 10 -15 0 -8 -4 -15 -10 -15 -5 0 -10
-9 -10 -20 0 -11 -7 -20 -15 -20 -8 0 -15 9 -15 20 0 16 -7 20 -35 20 -46 0
-45 17 2 80 48 65 63 65 63 0z m140 0 c0 -27 5 -50 10 -50 6 0 10 -7 10 -15 0
-8 -4 -15 -10 -15 -5 0 -10 -9 -10 -20 0 -11 -7 -20 -15 -20 -8 0 -15 9 -15
20 0 16 -7 20 -35 20 -45 0 -45 13 3 78 48 66 62 67 62 2z m140 30 c28 -28 26
-38 -20 -82 l-41 -38 41 0 c66 0 45 -24 -23 -28 -71 -4 -73 6 -11 69 26 26 43
52 40 58 -9 14 -43 14 -51 1 -9 -15 -25 -12 -25 5 0 35 60 45 90 15z m138 4
c31 -22 28 -42 -15 -86 l-37 -38 37 0 c26 0 37 -4 37 -15 0 -11 -13 -15 -54
-15 -30 0 -58 5 -61 10 -4 6 14 31 40 56 25 25 44 51 42 57 -5 15 -47 22 -47
8 0 -6 -7 -11 -15 -11 -21 0 -19 27 3 39 24 15 44 13 70 -5z m146 0 c25 -25
19 -53 -21 -89 l-38 -35 38 0 c26 0 37 -4 37 -15 0 -12 -13 -15 -55 -15 -69 0
-72 17 -14 70 28 26 40 43 36 54 -7 17 -47 22 -47 6 0 -5 -7 -10 -15 -10 -8 0
-15 4 -15 9 0 18 31 41 55 41 13 0 31 -7 39 -16z m-3132 -36 c9 -7 19 -23 23
-35 6 -22 3 -23 -40 -23 -54 0 -60 -24 -6 -26 43 -1 49 -11 16 -26 -41 -18
-79 6 -83 54 -5 57 47 89 90 56z m168 2 c0 -5 -7 -10 -15 -10 -8 0 -15 5 -15
10 0 6 7 10 15 10 8 0 15 -4 15 -10z m0 -105 c0 -8 -7 -15 -15 -15 -8 0 -15 7
-15 15 0 8 7 15 15 15 8 0 15 -7 15 -15z"/>
<path d="M4055 6450 c-4 -6 9 -10 32 -10 28 0 34 3 23 10 -20 13 -47 13 -55 0z"/>
<path d="M4050 6402 c0 -8 57 -32 76 -32 5 0 -4 9 -21 20 -31 21 -55 26 -55
12z"/>
<path d="M3864 6315 c-24 -18 -7 -19 26 0 16 9 19 14 9 15 -8 0 -24 -7 -35
-15z"/>
<path d="M3551 6024 c0 -11 3 -14 6 -6 3 7 2 16 -1 19 -3 4 -6 -2 -5 -13z"/>
<path d="M3542 5975 c0 -16 2 -22 5 -12 2 9 2 23 0 30 -3 6 -5 -1 -5 -18z"/>
<path d="M3532 5905 c0 -16 2 -22 5 -12 2 9 2 23 0 30 -3 6 -5 -1 -5 -18z"/>
<path d="M5350 5990 c0 -5 7 -10 16 -10 8 0 12 5 9 10 -3 6 -10 10 -16 10 -5
0 -9 -4 -9 -10z"/>
<path d="M5962 5740 c-10 -17 -10 -21 3 -26 8 -3 22 2 31 11 15 14 15 18 3 26
-20 12 -23 12 -37 -11z"/>
<path d="M5190 4204 c0 -8 5 -12 10 -9 6 4 8 11 5 16 -9 14 -15 11 -15 -7z"/>
<path d="M6512 4461 c-60 -38 -67 -99 -16 -146 33 -30 72 -37 111 -18 42 19
53 34 60 76 4 28 0 40 -23 66 -38 42 -87 50 -132 22z"/>
<path d="M8394 4470 c-31 -12 -64 -59 -64 -91 0 -17 11 -38 30 -57 46 -46 95
-48 144 -5 49 43 42 107 -16 143 -35 21 -60 24 -94 10z"/>
<path d="M3883 2528 c-12 -19 -16 -267 -6 -308 8 -30 14 -35 43 -38 19 -2 36
2 41 10 10 15 12 308 3 332 -7 19 -69 22 -81 4z"/>
<path d="M5440 2475 l0 -55 33 0 c41 0 57 15 57 55 0 40 -16 55 -57 55 l-33 0
0 -55z"/>
<path d="M3417 1884 c-24 -25 7 -82 39 -70 24 9 15 70 -11 74 -12 2 -24 0 -28
-4z"/>
<path d="M4607 1884 c-24 -25 7 -82 39 -70 24 9 15 70 -11 74 -12 2 -24 0 -28
-4z"/>
<path d="M3267 1883 c-15 -14 -6 -23 24 -23 27 0 30 2 19 15 -13 16 -32 19
-43 8z"/>
<path d="M5422 1878 c-29 -29 3 -82 36 -61 25 15 22 67 -3 71 -11 1 -26 -3
-33 -10z"/>
<path d="M6184 1876 c-11 -29 1 -61 24 -64 26 -4 45 33 30 61 -11 21 -46 23
-54 3z"/>
<path d="M4184 1546 c-11 -29 0 -51 26 -51 21 0 25 5 25 30 0 24 -5 31 -23 33
-13 2 -24 -3 -28 -12z"/>
<path d="M5676 1554 c-4 -19 -10 -42 -13 -50 -9 -24 25 -16 43 11 15 23 15 27
0 50 -9 14 -18 25 -20 25 -2 0 -7 -16 -10 -36z"/>
<path d="M5590 1539 c-15 -27 -6 -49 20 -49 21 0 41 35 33 58 -8 19 -41 14
-53 -9z"/>
<path d="M3511 1507 c-13 -16 -5 -27 21 -27 11 0 18 7 18 20 0 23 -22 27 -39
7z"/>
<path d="M4994 1535 c-8 -32 6 -48 37 -43 19 2 24 9 24 33 0 25 -4 31 -27 33
-22 3 -29 -2 -34 -23z"/>
<path d="M5794 1546 c-11 -29 0 -51 26 -51 21 0 25 5 25 30 0 24 -5 31 -23 33
-13 2 -24 -3 -28 -12z"/>
<path d="M6177 1513 c-16 -15 -6 -34 15 -31 29 4 38 38 10 38 -10 0 -22 -3
-25 -7z"/>
<path d="M6671 1546 c-21 -25 -4 -58 27 -54 23 2 27 8 27 33 0 23 -5 31 -21
33 -11 2 -26 -4 -33 -12z"/>
<path d="M3534 1257 c-3 -8 -4 -32 -2 -53 2 -31 7 -39 23 -39 17 0 20 7 20 50
0 39 -4 50 -18 53 -9 2 -20 -3 -23 -11z"/>
<path d="M3822 1253 c2 -10 10 -18 18 -18 8 0 16 8 18 18 2 12 -3 17 -18 17
-15 0 -20 -5 -18 -17z"/>
<path d="M3814 1196 c-8 -21 3 -36 27 -36 15 0 20 6 17 22 -4 27 -35 37 -44
14z"/>
<path d="M4524 1257 c-3 -8 -4 -32 -2 -53 2 -31 7 -39 23 -39 17 0 20 7 20 50
0 39 -4 50 -18 53 -9 2 -20 -3 -23 -11z"/>
<path d="M4666 1261 c-8 -12 21 -34 34 -26 17 11 11 35 -9 35 -11 0 -22 -4
-25 -9z"/>
<path d="M4664 1195 c-4 -9 -2 -21 4 -27 15 -15 44 -1 40 19 -4 23 -36 29 -44
8z"/>
<path d="M4800 1251 c0 -22 29 -36 43 -22 15 15 0 41 -23 41 -13 0 -20 -7 -20
-19z"/>
<path d="M5020 1220 c0 -37 4 -52 16 -57 20 -7 34 13 34 49 0 39 -10 58 -31
58 -16 0 -19 -8 -19 -50z"/>
<path d="M5300 1256 c0 -8 5 -18 10 -21 13 -8 42 14 34 26 -9 15 -44 10 -44
-5z"/>
<path d="M5302 1198 c-15 -18 1 -41 24 -36 23 4 26 41 3 46 -9 1 -21 -3 -27
-10z"/>
<path d="M5440 1251 c0 -27 19 -36 37 -18 18 18 9 37 -18 37 -12 0 -19 -7 -19
-19z"/>
<path d="M5587 1264 c-10 -10 -8 -76 2 -93 5 -8 16 -11 26 -8 22 9 18 100 -5
105 -9 1 -19 0 -23 -4z"/>
<path d="M5736 1225 c-16 -24 -16 -25 4 -25 15 0 20 7 20 25 0 14 -2 25 -4 25
-2 0 -11 -11 -20 -25z"/>
<path d="M5876 1225 c-16 -24 -16 -25 4 -25 15 0 20 7 20 25 0 14 -2 25 -4 25
-2 0 -11 -11 -20 -25z"/>
<path d="M3167 1234 c-14 -14 -6 -24 19 -24 16 0 24 5 22 13 -5 14 -31 21 -41
11z"/>
<path d="M8951 5994 c0 -11 3 -14 6 -6 3 7 2 16 -1 19 -3 4 -6 -2 -5 -13z"/>
<path d="M6821 5435 l-23 -25 37 0 c30 0 36 3 31 16 -3 9 -6 20 -6 25 0 16
-14 10 -39 -16z"/>
<path d="M7337 5434 c-8 -8 4 -107 14 -118 18 -20 8 -34 -35 -46 -25 -7 -55
-23 -67 -36 l-23 -24 -10 32 c-11 32 -14 33 -76 40 -36 3 -77 9 -91 13 -37 10
-41 -4 -16 -56 17 -34 29 -45 49 -47 l27 -3 -37 -57 c-20 -31 -40 -59 -43 -62
-3 -3 -12 -16 -19 -30 -7 -14 -29 -46 -49 -72 l-35 -48 -68 0 c-46 0 -77 5
-93 16 -17 11 -59 17 -143 21 l-119 6 -19 -32 c-16 -28 -24 -31 -69 -32 -78
-3 -137 -5 -173 -7 -24 -1 -46 -14 -80 -46 l-47 -45 -2 -73 c-1 -40 -2 -79 -3
-86 0 -7 -4 -11 -8 -8 -5 3 -8 46 -6 96 2 89 2 90 -23 96 -30 8 -32 6 -78 -81
-35 -65 -38 -78 -42 -172 -6 -114 -4 -116 73 -129 32 -5 43 -2 58 15 22 24 15
37 -24 44 -14 2 20 4 75 4 62 -1 76 -2 38 -4 -96 -6 -77 -32 33 -48 46 -6 54
-4 73 16 11 13 21 28 21 35 0 20 83 93 138 121 76 38 174 39 252 2 64 -31 120
-81 145 -130 24 -46 30 -49 113 -49 41 0 72 -4 72 -10 0 -6 -33 -10 -80 -10
-65 0 -82 -3 -87 -16 -3 -9 0 -20 8 -25 8 -5 289 -8 644 -6 l630 2 3 23 c3 21
1 22 -82 22 -112 0 -112 18 0 22 l86 3 22 40 c76 142 254 202 398 133 57 -27
107 -73 151 -138 l23 -35 111 3 c132 3 195 13 201 30 3 9 -16 13 -65 14 -60 2
-56 3 32 7 l100 6 0 60 c0 56 -2 60 -22 57 -30 -4 -35 8 -35 106 0 81 1 87 21
90 20 3 21 -1 21 -87 0 -90 12 -120 24 -60 15 75 -1 267 -34 409 -6 25 -13 65
-17 90 -3 25 -9 50 -14 55 -4 6 -11 30 -15 54 -8 50 -26 71 -60 71 -17 0 -24
6 -24 19 0 11 -7 27 -16 35 -14 14 -93 16 -722 16 -428 0 -713 -4 -722 -10
-10 -6 -15 -26 -15 -65 0 -39 5 -59 15 -65 12 -8 11 -10 -7 -10 -39 0 -78 52
-55 74 12 13 9 30 -11 59 -14 20 -27 27 -51 27 -18 0 -35 -3 -39 -6z m463 -49
c0 -13 -22 -15 -135 -15 -113 0 -135 2 -135 15 0 13 22 15 135 15 113 0 135
-2 135 -15z m400 0 c0 -13 -27 -15 -180 -15 -153 0 -180 2 -180 15 0 13 27 15
180 15 153 0 180 -2 180 -15z m410 0 c0 -13 -27 -15 -185 -15 -158 0 -185 2
-185 15 0 13 27 15 185 15 158 0 185 -2 185 -15z m304 0 c5 -14 -12 -15 -131
-13 -98 2 -138 7 -141 16 -3 9 28 12 131 12 112 0 136 -3 141 -15z m-1114 -60
c0 -13 -22 -15 -135 -15 -178 0 -180 18 -2 23 72 1 133 4 135 5 1 1 2 -5 2
-13z m400 -5 c0 -6 -72 -10 -180 -10 -137 0 -180 3 -180 13 0 9 41 11 180 9
106 -2 180 -7 180 -12z m410 0 c0 -6 -68 -10 -185 -10 -117 0 -185 4 -185 10
0 6 68 10 185 10 117 0 185 -4 185 -10z m305 0 c-4 -6 -62 -10 -141 -10 -83 0
-134 4 -134 10 0 6 54 10 141 10 91 0 138 -4 134 -10z m95 -26 c6 -14 10 -32
10 -40 0 -19 -34 -18 -50 1 -7 8 -19 15 -26 15 -18 0 -18 6 3 30 24 28 52 25
63 -6z m-1352 -226 l3 -138 -198 0 c-153 0 -194 3 -185 12 7 7 12 31 12 55 l0
43 -38 0 c-21 0 -47 -7 -60 -15 -15 -11 -9 3 21 48 63 93 82 116 108 126 13 6
94 9 179 8 l155 -2 3 -137z m410 0 l3 -138 -161 0 -160 0 0 133 c0 74 3 137 7
141 4 3 75 5 157 4 l151 -3 3 -137z m99 134 c7 -5 19 -53 27 -108 8 -54 18
-114 22 -131 l7 -33 -59 0 -59 0 3 127 c1 71 5 134 7 141 5 14 33 16 52 4z
m708 -4 c14 -6 25 -19 25 -30 0 -17 -16 -18 -305 -18 -257 0 -305 2 -305 14 0
8 -3 21 -6 30 -6 14 23 16 279 16 196 0 294 -4 312 -12z m168 -70 c21 -89 21
-90 0 -86 -12 2 -21 24 -34 81 -16 72 -16 77 0 77 13 0 21 -18 34 -72z m-1890
-25 c-21 -32 -43 -62 -49 -68 -6 -5 -16 -19 -22 -30 -6 -11 -12 -15 -12 -8 0
6 10 24 23 40 13 15 38 52 56 81 19 29 36 51 38 48 2 -2 -13 -30 -34 -63z
m1757 -3 c0 -6 -108 -10 -305 -10 -197 0 -305 4 -305 10 0 6 108 10 305 10
197 0 305 -4 305 -10z m10 -60 c0 -6 -106 -10 -299 -10 -189 0 -302 4 -306 10
-4 7 98 10 299 10 197 0 306 -4 306 -10z m160 -87 c6 -32 12 -66 15 -76 2 -14
-2 -17 -18 -15 -22 3 -30 22 -40 101 -6 42 -5 47 12 47 16 0 22 -11 31 -57z
m-152 12 c7 -14 12 -29 12 -33 0 -4 -137 -6 -305 -4 -252 2 -305 5 -305 16 0
8 -3 21 -6 30 -6 14 24 16 293 16 l300 0 11 -25z m-1887 -22 c-12 -20 -14 -14
-5 12 4 9 9 14 11 11 3 -2 0 -13 -6 -23z m1989 -213 c0 -33 -3 -40 -20 -40
-37 0 -21 75 18 80 1 0 2 -18 2 -40z m-2830 15 c0 -14 -29 -35 -49 -35 -6 0
-11 11 -11 25 0 21 5 25 30 25 20 0 30 -5 30 -15z m2708 -135 c-7 -10 -14 -17
-17 -15 -4 4 18 35 25 35 2 0 -1 -9 -8 -20z m-4 -76 c3 -8 2 -12 -4 -9 -6 3
-10 10 -10 16 0 14 7 11 14 -7z m-1014 -94 c0 -6 -137 -10 -390 -10 -253 0
-390 4 -390 10 0 6 137 10 390 10 253 0 390 -4 390 -10z"/>
<path d="M1355 4249 c-8 -23 -1 -34 14 -24 13 8 15 45 2 45 -5 0 -13 -9 -16
-21z"/>
<path d="M7706 4235 c-9 -26 -7 -32 5 -12 6 10 9 21 6 23 -2 3 -7 -2 -11 -11z"/>
<path d="M7751 4224 c0 -11 3 -14 6 -6 3 7 2 16 -1 19 -3 4 -6 -2 -5 -13z"/>
</g>
</svg>
